<?xml version="1.0" encoding="UTF-8" standalone="no"?>
<!-- Created with Inkscape (http://www.inkscape.org/) -->

<svg
   xmlns:dc="http://purl.org/dc/elements/1.1/"
   xmlns:cc="http://creativecommons.org/ns#"
   xmlns:rdf="http://www.w3.org/1999/02/22-rdf-syntax-ns#"
   xmlns:svg="http://www.w3.org/2000/svg"
   xmlns="http://www.w3.org/2000/svg"
   xmlns:sodipodi="http://sodipodi.sourceforge.net/DTD/sodipodi-0.dtd"
   xmlns:inkscape="http://www.inkscape.org/namespaces/inkscape"
   width="24"
   height="24"
   viewBox="0 0 6.3499999 6.3500002"
   version="1.1"
   id="svg8"
   inkscape:version="0.92.3 (2405546, 2018-03-11)"
   sodipodi:docname="bpmnservicetask.svg"
   inkscape:export-filename="C:\diskH\TK\valkyrie\work\eclipse\modelio.uml\uml.ui\mmimages\bpmnservicetask.png"
   inkscape:export-xdpi="96"
   inkscape:export-ydpi="96">
  <defs
     id="defs2" />
  <sodipodi:namedview
     id="base"
     pagecolor="#ffffff"
     bordercolor="#666666"
     borderopacity="1.0"
     inkscape:pageopacity="0.0"
     inkscape:pageshadow="2"
     inkscape:zoom="32.958333"
     inkscape:cx="11.437793"
     inkscape:cy="11.562929"
     inkscape:document-units="px"
     inkscape:current-layer="layer2"
     showgrid="true"
     units="px"
     inkscape:pagecheckerboard="true"
     inkscape:window-width="1920"
     inkscape:window-height="1017"
     inkscape:window-x="1272"
     inkscape:window-y="-8"
     inkscape:window-maximized="1"
     showguides="false">
    <inkscape:grid
       type="xygrid"
       id="grid4497" />
  </sodipodi:namedview>
  <metadata
     id="metadata5">
    <rdf:RDF>
      <cc:Work
         rdf:about="">
        <dc:format>image/svg+xml</dc:format>
        <dc:type
           rdf:resource="http://purl.org/dc/dcmitype/StillImage" />
        <dc:title></dc:title>
      </cc:Work>
    </rdf:RDF>
  </metadata>
  <g
     inkscape:groupmode="layer"
     id="layer1"
     inkscape:label="call 2" />
  <g
     inkscape:groupmode="layer"
     id="layer2"
     inkscape:label="call 1"
     style="display:inline">
    <path
       style="opacity:1;fill:#e1eaef;fill-opacity:1;fill-rule:evenodd;stroke:#7699ba;stroke-width:0.26458335;stroke-linecap:square;stroke-linejoin:miter;stroke-miterlimit:4;stroke-dasharray:none;stroke-dashoffset:0;stroke-opacity:1;paint-order:stroke fill markers"
       d="M 2.1956409,0.56714568 V 1.0733741 A 1.4703651,1.4703651 0 0 0 1.5875,1.3229167 L 1.213186,0.94860288 0.86792201,1.2933907 1.2403309,1.6657996 A 1.4703651,1.4703651 0 0 0 0.98554991,2.2739402 H 0.48884601 V 2.761596 h 0.4933705 A 1.4703651,1.4703651 0 0 0 1.2355687,3.374023 L 0.86792201,3.7416694 1.213186,4.0864575 1.5794041,3.7202395 A 1.4703651,1.4703651 0 0 0 2.1956409,3.9726393 V 4.4683907 H 2.6832966 V 3.9726393 A 1.4703651,1.4703651 0 0 0 3.2933421,3.7135723 L 3.6590839,4.079314 4.0038719,3.734526 3.6362252,3.3668795 A 1.4703651,1.4703651 0 0 0 3.8819577,2.761596 H 4.3900911 V 2.2739402 H 3.8814815 A 1.4703651,1.4703651 0 0 0 3.627177,1.6696094 L 4.0033954,1.2933907 3.6586076,0.94860288 3.2823889,1.3248215 A 1.4703651,1.4703651 0 0 0 2.6832966,1.0762315 V 0.56714568 Z M 2.4394686,1.5424569 A 0.97531135,0.97531135 0 0 1 3.41478,2.5177683 0.97531135,0.97531135 0 0 1 2.4394686,3.4930794 0.97531135,0.97531135 0 0 1 1.4641575,2.5177683 0.97531135,0.97531135 0 0 1 2.4394686,1.5424569 Z"
       id="path998"
       inkscape:connector-curvature="0" />
    <path
       style="display:inline;opacity:1;fill:#e1eaef;fill-opacity:1;fill-rule:evenodd;stroke:#7699ba;stroke-width:0.26458335;stroke-linecap:square;stroke-linejoin:miter;stroke-miterlimit:4;stroke-dasharray:none;stroke-dashoffset:0;stroke-opacity:1;paint-order:stroke fill markers"
       d="M 3.7041667,2.139605 V 2.6458334 A 1.4703651,1.4703651 0 0 0 3.0960258,2.895376 L 2.7217118,2.5210622 2.3764478,2.86585 2.7488567,3.2382589 A 1.4703651,1.4703651 0 0 0 2.4940757,3.8463995 H 1.9973718 v 0.4876558 h 0.4933705 a 1.4703651,1.4703651 0 0 0 0.2533522,0.612427 L 2.3764478,5.3141287 2.7217118,5.6589168 3.0879299,5.2926988 A 1.4703651,1.4703651 0 0 0 3.7041667,5.5450986 V 6.04085 H 4.1918224 V 5.5450986 A 1.4703651,1.4703651 0 0 0 4.8018678,5.2860316 L 5.1676096,5.6517733 5.5123976,5.3069853 5.1447509,4.9393388 A 1.4703651,1.4703651 0 0 0 5.3904834,4.3340553 H 5.8986168 V 3.8463995 H 5.3900072 A 1.4703651,1.4703651 0 0 0 5.1357027,3.2420687 L 5.5119211,2.86585 5.1671333,2.5210622 4.7909146,2.8972808 A 1.4703651,1.4703651 0 0 0 4.1918224,2.6486908 V 2.139605 Z M 3.9479944,3.1149162 A 0.97531135,0.97531135 0 0 1 4.9233057,4.0902276 0.97531135,0.97531135 0 0 1 3.9479944,5.0655387 0.97531135,0.97531135 0 0 1 2.9726833,4.0902276 0.97531135,0.97531135 0 0 1 3.9479944,3.1149162 Z"
       id="path998-3"
       inkscape:connector-curvature="0" />
  </g>
</svg>
