<?xml version="1.0" encoding="UTF-8" standalone="no"?>
<!-- Created with Inkscape (http://www.inkscape.org/) -->

<svg
   xmlns:dc="http://purl.org/dc/elements/1.1/"
   xmlns:cc="http://creativecommons.org/ns#"
   xmlns:rdf="http://www.w3.org/1999/02/22-rdf-syntax-ns#"
   xmlns:svg="http://www.w3.org/2000/svg"
   xmlns="http://www.w3.org/2000/svg"
   xmlns:sodipodi="http://sodipodi.sourceforge.net/DTD/sodipodi-0.dtd"
   xmlns:inkscape="http://www.inkscape.org/namespaces/inkscape"
   width="24"
   height="24"
   viewBox="0 0 6.3499999 6.3500002"
   version="1.1"
   id="svg8"
   inkscape:version="0.92.3 (2405546, 2018-03-11)"
   sodipodi:docname="bpmnmanualtask.svg"
   inkscape:export-filename="C:\diskH\TK\valkyrie\work\eclipse\modelio.uml\uml.ui\mmimages\bpmnmanualtask.png"
   inkscape:export-xdpi="96"
   inkscape:export-ydpi="96">
  <defs
     id="defs2" />
  <sodipodi:namedview
     id="base"
     pagecolor="#ffffff"
     bordercolor="#666666"
     borderopacity="1.0"
     inkscape:pageopacity="0.0"
     inkscape:pageshadow="2"
     inkscape:zoom="46.610122"
     inkscape:cx="9.5254871"
     inkscape:cy="12.178601"
     inkscape:document-units="px"
     inkscape:current-layer="layer1"
     showgrid="true"
     units="px"
     inkscape:pagecheckerboard="true"
     inkscape:window-width="1920"
     inkscape:window-height="1017"
     inkscape:window-x="1272"
     inkscape:window-y="-8"
     inkscape:window-maximized="1">
    <inkscape:grid
       type="xygrid"
       id="grid4497" />
  </sodipodi:namedview>
  <metadata
     id="metadata5">
    <rdf:RDF>
      <cc:Work
         rdf:about="">
        <dc:format>image/svg+xml</dc:format>
        <dc:type
           rdf:resource="http://purl.org/dc/dcmitype/StillImage" />
        <dc:title></dc:title>
      </cc:Work>
    </rdf:RDF>
  </metadata>
  <g
     inkscape:label="abstraction"
     inkscape:groupmode="layer"
     id="layer1"
     transform="translate(0,-290.64999)">
    <path
       style="fill:#ffffff;fill-opacity:1;fill-rule:evenodd;stroke:#8c9fac;stroke-width:0.26458335;stroke-linecap:butt;stroke-linejoin:miter;stroke-miterlimit:4;stroke-dasharray:none;stroke-opacity:1;paint-order:normal"
       d="m 0.26458334,295.41249 v -2.38125 c 1.05833336,-0.52917 1.05140656,-0.92198 1.58057326,-0.92209 l 1.5887503,-3.2e-4 c 0.283826,0.0113 0.5348431,0.26426 0.5348432,0.79343 l -1.869113,0 2.9104167,3.2e-4 c 0.2611199,-0.006 0.6676111,0.0619 0.6767563,0.3926 0.00944,0.34135 -0.4269894,0.39547 -0.6824328,0.40115 l -1.5704704,0.005 2.1166666,3.2e-4 c 0.2554435,0.006 0.6725549,0.0337 0.6710798,0.38915 -0.00145,0.34969 -0.3872538,0.39893 -0.6540503,0.39893 l -2.1166666,-3.2e-4 1.5875,3.2e-4 c 0.2440904,0.006 0.645137,0.0904 0.6540502,0.38692 0.0089,0.29608 -0.2907528,0.40179 -0.6654032,0.40747 l -1.5875,0.005 1.3229166,-3.2e-4 c 0,0 0.3954969,0.0847 0.3986068,0.38125 0.00322,0.3074 -0.4247762,0.40682 -0.6631901,0.4125 l -3.1727868,-3.2e-4 c 0,0 -1.06054656,-0.14191 -1.06054656,-0.67108 z"
       id="path882"
       inkscape:connector-curvature="0"
       sodipodi:nodetypes="ccsccccscccscccscccsccsc" />
  </g>
</svg>
