<?xml version="1.0" encoding="UTF-8" standalone="no"?>
<!-- Created with Inkscape (http://www.inkscape.org/) -->

<svg
   xmlns:dc="http://purl.org/dc/elements/1.1/"
   xmlns:cc="http://creativecommons.org/ns#"
   xmlns:rdf="http://www.w3.org/1999/02/22-rdf-syntax-ns#"
   xmlns:svg="http://www.w3.org/2000/svg"
   xmlns="http://www.w3.org/2000/svg"
   xmlns:sodipodi="http://sodipodi.sourceforge.net/DTD/sodipodi-0.dtd"
   xmlns:inkscape="http://www.inkscape.org/namespaces/inkscape"
   width="24"
   height="24"
   viewBox="0 0 6.35 6.35"
   version="1.1"
   id="svg8"
   inkscape:version="0.92.1 r15371"
   sodipodi:docname="audit.svg"
   inkscape:export-filename="C:\diskH\Graphisme\Works\Modelio\Flat icons\modelio.app\app.ui\icons\audit.png"
   inkscape:export-xdpi="96"
   inkscape:export-ydpi="96">
  <defs
     id="defs2" />
  <sodipodi:namedview
     id="base"
     pagecolor="#ffffff"
     bordercolor="#666666"
     borderopacity="1.0"
     inkscape:pageopacity="0.0"
     inkscape:pageshadow="2"
     inkscape:zoom="32.958333"
     inkscape:cx="12"
     inkscape:cy="12"
     inkscape:document-units="px"
     inkscape:current-layer="layer4"
     showgrid="true"
     units="px"
     inkscape:window-width="1280"
     inkscape:window-height="961"
     inkscape:window-x="-8"
     inkscape:window-y="-8"
     inkscape:window-maximized="1"
     gridtolerance="1"
     guidetolerance="1">
    <inkscape:grid
       type="xygrid"
       id="grid4485" />
  </sodipodi:namedview>
  <metadata
     id="metadata5">
    <rdf:RDF>
      <cc:Work
         rdf:about="">
        <dc:format>image/svg+xml</dc:format>
        <dc:type
           rdf:resource="http://purl.org/dc/dcmitype/StillImage" />
        <dc:title></dc:title>
      </cc:Work>
    </rdf:RDF>
  </metadata>
  <g
     inkscape:groupmode="layer"
     id="layer4"
     inkscape:label="bloc"
     style="display:inline">
    <path
       style="fill:#e37d39;fill-opacity:1;fill-rule:evenodd;stroke:none;stroke-width:0.25620538px;stroke-linecap:butt;stroke-linejoin:miter;stroke-opacity:0.82745098"
       d="m 0.78538993,5.5642778 c 0,0 0.00104,0.2634915 0.26561907,0.2660977 0.5224516,0.00779 4.2322976,-2.382e-4 4.2322976,-2.382e-4 0,0 0.2621022,-0.00253 0.2622469,-0.2648416 l 0.00234,-4.2343512 c 0,0 0,-0.2635477 -0.2642211,-0.2631477 -0.4991303,7.557e-4 -4.2336931,-0.00143 -4.2336931,-0.00143 0,0 -0.26331177,0.00309 -0.26458577,0.2645765 -0.00154,0.7959224 0,3.4395833 0,4.2333333 z"
       id="path6190"
       inkscape:connector-curvature="0"
       sodipodi:nodetypes="cccscsccc" />
  </g>
  <g
     inkscape:groupmode="layer"
     id="layer7"
     inkscape:label="feuille"
     style="display:inline">
    <rect
       style="display:inline;fill:#ddeaf7;fill-opacity:1;stroke:none;stroke-width:0.26458332;stroke-linecap:round;stroke-linejoin:miter;stroke-miterlimit:4;stroke-dasharray:none;stroke-dashoffset:0;stroke-opacity:1"
       id="rect5130"
       width="3.7041664"
       height="4.2249718"
       x="1.3145566"
       y="1.3393067" />
  </g>
  <g
     inkscape:groupmode="layer"
     id="layer11"
     inkscape:label="lignes">
    <path
       style="fill:none;fill-rule:evenodd;stroke:#434b62;stroke-width:0.26458332;stroke-linecap:butt;stroke-linejoin:miter;stroke-miterlimit:4;stroke-dasharray:none;stroke-opacity:0.77254903"
       d="M 1.8520833,2.5145697 H 4.4979166"
       id="path6819"
       inkscape:connector-curvature="0" />
    <path
       style="fill:none;fill-rule:evenodd;stroke:#434b62;stroke-width:0.26458332;stroke-linecap:butt;stroke-linejoin:miter;stroke-miterlimit:4;stroke-dasharray:none;stroke-opacity:0.77254903"
       d="M 1.8520833,3.2994311 H 4.4979166"
       id="path6819-0"
       inkscape:connector-curvature="0" />
    <path
       style="fill:none;fill-rule:evenodd;stroke:#434b62;stroke-width:0.26458332;stroke-linecap:butt;stroke-linejoin:miter;stroke-miterlimit:4;stroke-dasharray:none;stroke-opacity:0.77254903"
       d="M 1.8400417,4.118268 H 4.485875"
       id="path6819-08"
       inkscape:connector-curvature="0" />
    <path
       style="fill:none;fill-rule:evenodd;stroke:#434b62;stroke-width:0.26458332;stroke-linecap:butt;stroke-linejoin:miter;stroke-miterlimit:4;stroke-dasharray:none;stroke-opacity:0.77254903"
       d="M 1.8560159,4.8942611 H 4.5018493"
       id="path6819-4"
       inkscape:connector-curvature="0" />
  </g>
  <g
     inkscape:groupmode="layer"
     id="layer8"
     inkscape:label="base 3"
     style="display:inline">
    <path
       style="fill:#434b62;fill-opacity:1;fill-rule:evenodd;stroke:none;stroke-width:0.26458332px;stroke-linecap:butt;stroke-linejoin:miter;stroke-opacity:1"
       d="M 1.8601133,1.8601111 1.8520833,0.79375 h 0.79375 c 0,0 0.00961,-0.52916667 0.5307504,-0.5305102 0.527583,0.001344 0.5335648,0.5305102 0.5335648,0.5305102 h 0.7909117 l 0.00489,1.0663611 z"
       id="path6195"
       inkscape:connector-curvature="0"
       sodipodi:nodetypes="cccccccc" />
  </g>
  <g
     inkscape:groupmode="layer"
     id="layer10"
     inkscape:label="check">
    <g
       id="g6213"
       transform="matrix(0.02273761,0,0,0.02273761,3.1710027,3.1746484)">
      <circle
         class="st0"
         cx="64"
         cy="64"
         r="64"
         id="circle6211"
         style="fill:#31af91" />
    </g>
    <g
       id="g6217"
       transform="matrix(0.02273761,0,0,0.02273761,3.1710027,3.1746484)">
      <path
         class="st1"
         d="M 54.3,97.2 24.8,67.7 c -0.4,-0.4 -0.4,-1 0,-1.4 l 8.5,-8.5 c 0.4,-0.4 1,-0.4 1.4,0 L 55,78.1 93.2,39.9 c 0.4,-0.4 1,-0.4 1.4,0 l 8.5,8.5 c 0.4,0.4 0.4,1 0,1.4 L 55.7,97.2 c -0.4,0.4 -1,0.4 -1.4,0 z"
         id="path6215"
         inkscape:connector-curvature="0"
         style="fill:#ffffff" />
    </g>
  </g>
</svg>
