<?xml version="1.0" encoding="UTF-8" standalone="no"?>
<!-- Created with Inkscape (http://www.inkscape.org/) -->

<svg
   xmlns:dc="http://purl.org/dc/elements/1.1/"
   xmlns:cc="http://creativecommons.org/ns#"
   xmlns:rdf="http://www.w3.org/1999/02/22-rdf-syntax-ns#"
   xmlns:svg="http://www.w3.org/2000/svg"
   xmlns="http://www.w3.org/2000/svg"
   xmlns:sodipodi="http://sodipodi.sourceforge.net/DTD/sodipodi-0.dtd"
   xmlns:inkscape="http://www.inkscape.org/namespaces/inkscape"
   width="24"
   height="24"
   viewBox="0 0 6.35 6.35"
   version="1.1"
   id="svg8"
   inkscape:version="0.92.1 r15371"
   sodipodi:docname="modulecomponent.svg"
   inkscape:export-filename="C:\diskH\Graphisme\Works\Modelio\Flat icons\modelio.app\app.project.ui\icons\modulecomponent.png"
   inkscape:export-xdpi="96"
   inkscape:export-ydpi="96">
  <defs
     id="defs2">
    <linearGradient
       id="linearGradient3986">
      <stop
         style="stop-color:#949494;stop-opacity:1;"
         offset="0"
         id="stop3996" />
      <stop
         style="stop-color:#d5d5d5;stop-opacity:1;"
         offset="1"
         id="stop3990" />
    </linearGradient>
    <linearGradient
       id="linearGradient4051">
      <stop
         style="stop-color:#da1c1c;stop-opacity:1;"
         offset="0"
         id="stop4053" />
      <stop
         style="stop-color:#91110e;stop-opacity:1;"
         offset="1"
         id="stop4055" />
    </linearGradient>
  </defs>
  <sodipodi:namedview
     id="base"
     pagecolor="#ffffff"
     bordercolor="#666666"
     borderopacity="1.0"
     inkscape:pageopacity="0.0"
     inkscape:pageshadow="2"
     inkscape:zoom="16.479167"
     inkscape:cx="13.865993"
     inkscape:cy="24"
     inkscape:document-units="px"
     inkscape:current-layer="layer10"
     showgrid="true"
     units="px"
     inkscape:window-width="1280"
     inkscape:window-height="961"
     inkscape:window-x="-8"
     inkscape:window-y="-8"
     inkscape:window-maximized="1"
     showguides="true">
    <inkscape:grid
       type="xygrid"
       id="grid4485" />
  </sodipodi:namedview>
  <metadata
     id="metadata5">
    <rdf:RDF>
      <cc:Work
         rdf:about="">
        <dc:format>image/svg+xml</dc:format>
        <dc:type
           rdf:resource="http://purl.org/dc/dcmitype/StillImage" />
        <dc:title></dc:title>
      </cc:Work>
    </rdf:RDF>
  </metadata>
  <g
     inkscape:groupmode="layer"
     id="layer10"
     inkscape:label="module"
     style="display:inline"
     transform="translate(0,-6.35)">
    <path
       style="fill:#9b1b1b;fill-opacity:1;fill-rule:evenodd;stroke:none;stroke-width:0.12865339px;stroke-linecap:butt;stroke-linejoin:miter;stroke-opacity:1"
       d="m 3.7041667,6.8791667 c -0.5552883,-1e-7 -1.0054129,0.2915476 -1.0053203,0.6511513 3.767e-4,0.2554507 0.2809772,0.4795283 0.5450185,0.5696138 0.00471,0.02165 0.051904,0.0696 0.051904,0.1053446 0,0.044798 -0.04798,0.089254 -0.1089759,0.1286112 H 1.751942 v 1.5450406 c -0.033424,0.047957 -0.070418,0.084437 -0.1075036,0.084437 -0.06265,0 -0.092309,-0.0033 -0.1237003,-0.038308 C 1.4891672,9.8471515 1.4487705,9.7761272 1.4009605,9.7144846 1.3681995,9.6560887 1.3206453,9.6136667 1.2681782,9.5819472 1.1703916,9.508158 1.059871,9.4692607 0.94738956,9.4690448 0.58772862,9.4689666 0.29615734,9.856042 0.2962377,10.333483 c 2.197e-5,0.477347 0.29156318,0.864269 0.65115186,0.8642 0.25509074,-4e-4 0.48650504,-0.198519 0.59199994,-0.506834 0.02575,-0.01865 0.054455,-0.01994 0.1050467,-0.01994 0.037096,0 0.074068,0.03671 0.1075035,0.08478 v 1.437776 h 1.1577388 c 0,0 0.257221,-0.09642 0.257221,-0.192927 0,-0.03066 -5.586e-4,-0.05131 -0.00605,-0.06866 -0.2231299,-0.08174 -0.3663357,-0.259956 -0.3666955,-0.456273 0,-0.277606 0.2813104,-0.502653 0.6283253,-0.502653 0.3470149,0 0.6283257,0.225047 0.6283257,0.502653 -3.274e-4,0.19502 -0.1416241,0.372301 -0.3625147,0.454796 -0.00595,0.0177 -0.00672,0.03866 -0.00672,0.07019 0,0.09649 0.2574662,0.192928 0.2574662,0.192928 h 1.5438222 c -5.39e-5,-0.0013 0.2781574,-1.0839 0.3166195,-1.259347 0.024587,-0.202146 0.017014,-0.319068 -0.00604,-0.329872 -0.029205,-0.01365 -0.073522,-0.0057 -0.081742,0.0097 -0.03325,0.05558 -0.094737,0.19414 -0.1261508,0.256982 -0.042691,0.0992 -0.1649849,0.158042 -0.2861865,0.191437 -0.058078,0.02415 -0.1190161,0.0367 -0.1803959,0.03694 -0.01227,-2.53e-4 -0.024577,-0.0017 -0.036823,-0.003 -0.00744,2.91e-4 -0.019468,0.003 -0.026028,0.003 -0.030732,0.0012 -0.074355,-0.01159 -0.1222363,-0.03877 -0.2275642,-0.0966 -0.3802357,-0.35842 -0.3804871,-0.652687 1.632e-4,-0.290857 0.1492966,-0.5504612 0.3730679,-0.6494329 0.050122,-0.027739 0.096605,-0.041716 0.1295909,-0.041716 0.0129,2.769e-4 0.026402,8.222e-4 0.039514,0.00106 0.0077,-5.199e-4 0.015556,-0.00104 0.023335,-0.00106 0.036416,5.66e-5 0.072736,0.00452 0.1084825,0.013004 0.079856,0.01447 0.1662075,0.048208 0.2663027,0.1403915 0.2138455,0.1924224 0.1177637,0.2653164 0.2464214,0.2653164 0.037101,0 0.073729,-0.03355 0.1077473,-0.07924 C 5.8686688,9.7490881 5.6114726,8.3338871 5.6114726,8.3338871 H 4.176392 C 4.1154078,8.2945286 4.0676628,8.2500653 4.0676628,8.2052764 c 0,-0.02907 0.042431,-0.080556 0.045389,-0.099471 C 4.4980389,8.0080611 4.7093995,7.7981171 4.7094876,7.530318 4.709578,7.1707143 4.2594547,6.8791666 3.7041667,6.8791667 Z"
       id="path5327"
       inkscape:connector-curvature="0"
       sodipodi:nodetypes="sccccccscccccccscccsccsccsccccccccccccccccccscccsccs" />
  </g>
</svg>
