<?xml version="1.0" encoding="UTF-8" standalone="no"?>
<!-- Created with Inkscape (http://www.inkscape.org/) -->

<svg
   xmlns:dc="http://purl.org/dc/elements/1.1/"
   xmlns:cc="http://creativecommons.org/ns#"
   xmlns:rdf="http://www.w3.org/1999/02/22-rdf-syntax-ns#"
   xmlns:svg="http://www.w3.org/2000/svg"
   xmlns="http://www.w3.org/2000/svg"
   xmlns:sodipodi="http://sodipodi.sourceforge.net/DTD/sodipodi-0.dtd"
   xmlns:inkscape="http://www.inkscape.org/namespaces/inkscape"
   width="24"
   height="24"
   viewBox="0 0 6.3499999 6.3500002"
   version="1.1"
   id="svg8"
   inkscape:version="0.92.3 (2405546, 2018-03-11)"
   sodipodi:docname="adddocument.svg"
   inkscape:export-filename="C:\diskH\TK\valkyrie\work\eclipse\modelio.app\edition.notes\icons\adddocument.png"
   inkscape:export-xdpi="96"
   inkscape:export-ydpi="96">
  <defs
     id="defs2" />
  <sodipodi:namedview
     id="base"
     pagecolor="#ffffff"
     bordercolor="#666666"
     borderopacity="1.0"
     inkscape:pageopacity="0.0"
     inkscape:pageshadow="2"
     inkscape:zoom="32.958333"
     inkscape:cx="10.150329"
     inkscape:cy="12"
     inkscape:document-units="px"
     inkscape:current-layer="layer2"
     showgrid="true"
     units="px"
     inkscape:pagecheckerboard="true"
     inkscape:window-width="1280"
     inkscape:window-height="961"
     inkscape:window-x="-8"
     inkscape:window-y="-8"
     inkscape:window-maximized="1"
     showguides="false">
    <inkscape:grid
       type="xygrid"
       id="grid4497" />
  </sodipodi:namedview>
  <metadata
     id="metadata5">
    <rdf:RDF>
      <cc:Work
         rdf:about="">
        <dc:format>image/svg+xml</dc:format>
        <dc:type
           rdf:resource="http://purl.org/dc/dcmitype/StillImage" />
        <dc:title />
      </cc:Work>
    </rdf:RDF>
  </metadata>
  <g
     inkscape:groupmode="layer"
     id="layer2"
     inkscape:label="call 1"
     style="display:inline">
    <path
       style="display:inline;fill:#edf5fb;fill-opacity:1;fill-rule:evenodd;stroke:#5fa2cd;stroke-width:0.5291667;stroke-linecap:butt;stroke-linejoin:miter;stroke-miterlimit:4;stroke-dasharray:none;stroke-opacity:1;paint-order:stroke fill markers"
       d="M 5.0270834,5.8208334 H 1.5875 c 0,0 -0.2607094,0.015589 -0.2687583,-0.2500501 l 1e-7,-4.77630643 c 0,-0.26564502 0.2653092,-0.26530962 0.2653092,-0.26530962 l 2.3846991,-5.8e-7 1.3229162,1.58750063 -1e-7,3.4395833 c 0,0 0.00915,0.2726288 -0.2645828,0.2645828 z"
       id="path9027"
       inkscape:connector-curvature="0"
       sodipodi:nodetypes="ccccccccc" />
    <path
       style="display:inline;fill:#5fa2cd;fill-opacity:1;fill-rule:evenodd;stroke:none;stroke-width:0.13265505px;stroke-linecap:butt;stroke-linejoin:miter;stroke-opacity:1"
       d="M 3.9687501,0.27227675 3.9643901,2.1166667 H 5.55625 Z"
       id="path9030"
       inkscape:connector-curvature="0"
       sodipodi:nodetypes="cccc" />
    <path
       style="display:inline;fill:#72ac2d;fill-opacity:1;fill-rule:evenodd;stroke:#ffffff;stroke-width:0.26458335;stroke-linecap:butt;stroke-linejoin:miter;stroke-miterlimit:4;stroke-dasharray:none;stroke-opacity:1"
       d="m 0.40787541,1.1944713 1.05893749,0.016056 -0.00803,-1.06696576 1.0589375,0.008028 0.00803,1.05091016 h 1.0589363 v 1.0589376 l -1.066964,0.00803 -5e-7,1.0589374 H 1.4507573 l 0.00803,-1.066968 -1.05893748,0.00803 z"
       id="path4545"
       inkscape:connector-curvature="0"
       sodipodi:nodetypes="ccccccccccccc" />
  </g>
  <g
     inkscape:groupmode="layer"
     id="layer1"
     inkscape:label="trombonne"
     style="display:none">
    <g
       style="display:inline"
       transform="matrix(0,0.00881,0.00881,0,-0.19929434,2.2498896)"
       id="Layer_7">
      <path
         style="fill:#252525"
         inkscape:connector-curvature="0"
         d="m 316,314.77 v 59.46 c 0,30.38 -24.62,55 -55,55 -30.38,0 -55,-24.62 -55,-55 v -59.45 c -15.99,14.79 -26,35.95 -26,59.45 0,44.74 36.27,81 81,81 44.74,0 81,-36.26 81,-81 0,-23.501 -10.01,-44.67 -26,-59.46 z"
         id="path848" />
      <path
         style="fill:#252525"
         inkscape:connector-curvature="0"
         d="M 292,337.59 V 338 c -0.22,19.14 -15.81,34.59 -35,34.59 -19.19,0 -34.78,-15.45 -35,-34.59 v -0.41 c 0,-16.22 11.03,-29.859 26,-33.83 V 338 c 0,4.97 4.03,9 9,9 4.971,0 9,-4.03 9,-9 v -34.24 c 14.97,3.97 26,17.61 26,33.83 z"
         id="path850" />
      <rect
         style="fill:#252525"
         height="263"
         width="26"
         x="180"
         y="110"
         id="rect852" />
      <rect
         style="fill:#252525"
         height="228"
         width="26"
         x="266"
         y="110"
         id="rect854" />
      <rect
         style="fill:#252525"
         height="152"
         width="26"
         x="222"
         y="186"
         id="rect856" />
      <path
         style="fill:#252525"
         inkscape:connector-curvature="0"
         d="m 236,54 c -30.93,0 -56,25.07 -56,56 0,19.89 10.37,37.36 26,47.29 V 110 c 0,-16.57 13.43,-30 30,-30 16.57,0 30,13.43 30,30 v 47.29 c 15.63,-9.93 26,-27.4 26,-47.29 0,-30.93 -25.07,-56 -56,-56 z"
         id="path858" />
      <rect
         style="fill:#252525"
         height="263"
         width="26"
         x="316"
         y="110"
         id="rect860" />
      <circle
         style="fill:#252525"
         cx="235"
         cy="185.5"
         r="13"
         id="circle862" />
      <circle
         style="fill:#252525"
         cx="329"
         cy="109.5"
         r="13"
         id="circle864" />
    </g>
  </g>
</svg>
