<?xml version="1.0" encoding="UTF-8" standalone="no"?>
<!-- Created with Inkscape (http://www.inkscape.org/) -->

<svg
   xmlns:dc="http://purl.org/dc/elements/1.1/"
   xmlns:cc="http://creativecommons.org/ns#"
   xmlns:rdf="http://www.w3.org/1999/02/22-rdf-syntax-ns#"
   xmlns:svg="http://www.w3.org/2000/svg"
   xmlns="http://www.w3.org/2000/svg"
   xmlns:sodipodi="http://sodipodi.sourceforge.net/DTD/sodipodi-0.dtd"
   xmlns:inkscape="http://www.inkscape.org/namespaces/inkscape"
   width="24"
   height="24"
   viewBox="0 0 6.35 6.35"
   version="1.1"
   id="svg8"
   inkscape:version="0.92.3 (2405546, 2018-03-11)"
   sodipodi:docname="linkeditor.svg"
   inkscape:export-filename="C:\diskH\TK\valkyrie\work\eclipse\modelio.app\link.editor\icons\linkeditor.png"
   inkscape:export-xdpi="96"
   inkscape:export-ydpi="96">
  <defs
     id="defs2" />
  <sodipodi:namedview
     id="base"
     pagecolor="#ffffff"
     bordercolor="#666666"
     borderopacity="1.0"
     inkscape:pageopacity="0.0"
     inkscape:pageshadow="2"
     inkscape:zoom="32.958333"
     inkscape:cx="8.2707055"
     inkscape:cy="11.99635"
     inkscape:document-units="px"
     inkscape:current-layer="layer9"
     showgrid="true"
     units="px"
     inkscape:window-width="1920"
     inkscape:window-height="1017"
     inkscape:window-x="1272"
     inkscape:window-y="-8"
     inkscape:window-maximized="1">
    <inkscape:grid
       type="xygrid"
       id="grid4485" />
  </sodipodi:namedview>
  <metadata
     id="metadata5">
    <rdf:RDF>
      <cc:Work
         rdf:about="">
        <dc:format>image/svg+xml</dc:format>
        <dc:type
           rdf:resource="http://purl.org/dc/dcmitype/StillImage" />
        <dc:title></dc:title>
      </cc:Work>
    </rdf:RDF>
  </metadata>
  <g
     inkscape:groupmode="layer"
     id="layer9"
     inkscape:label="link">
    <path
       inkscape:connector-curvature="0"
       d="m 1.1359652,5.2486966 a 1.4552069,1.4552069 0 0 1 -1.5e-6,-2.0579754 L 1.907706,2.4189789 a 1.4552069,1.4552069 0 0 1 2.0579751,1.7e-6 L 3.4511879,2.9334738 a 0.727604,0.727604 0 0 0 -1.0289878,-9e-7 L 1.6504578,3.7052153 a 0.727604,0.727604 0 0 0 1.3e-6,1.0289874 0.727604,0.727604 0 0 0 1.0289864,3e-7 L 3.4511868,4.9914481 3.1939387,5.2486962 a 1.4552069,1.4552069 0 0 1 -2.0579735,4e-7 z M 2.9366927,1.3899922 3.1939398,1.132745 a 1.4552069,1.4552069 0 0 1 2.0579763,7e-7 1.4552069,1.4552069 0 0 1 -1.2e-6,2.0579744 L 4.4801745,3.9624604 a 1.4552069,1.4552069 0 0 1 -2.0579742,1.1e-6 L 2.9366945,3.4479673 a 0.727604,0.727604 0 0 0 1.0289868,-1e-7 L 4.7374217,2.6762268 a 0.727604,0.727604 0 0 0 1.1e-6,-1.0289878 0.727604,0.727604 0 0 0 -1.0289889,1e-7 z"
       id="path5749"
       style="fill:#4f5d73;fill-opacity:1;stroke-width:0.18190101" />
  </g>
</svg>
