<?xml version="1.0" encoding="UTF-8" standalone="no"?>
<!-- Created with Inkscape (http://www.inkscape.org/) -->

<svg
   xmlns:dc="http://purl.org/dc/elements/1.1/"
   xmlns:cc="http://creativecommons.org/ns#"
   xmlns:rdf="http://www.w3.org/1999/02/22-rdf-syntax-ns#"
   xmlns:svg="http://www.w3.org/2000/svg"
   xmlns="http://www.w3.org/2000/svg"
   xmlns:sodipodi="http://sodipodi.sourceforge.net/DTD/sodipodi-0.dtd"
   xmlns:inkscape="http://www.inkscape.org/namespaces/inkscape"
   width="24"
   height="24"
   viewBox="0 0 6.35 6.35"
   version="1.1"
   id="svg8"
   inkscape:version="0.92.1 r15371"
   sodipodi:docname="zoom_in.svg"
   inkscape:export-filename="C:\diskH\TK\valkyrie\work\eclipse\modelio.app\diagram.editor\icons\zoom_in.png"
   inkscape:export-xdpi="96"
   inkscape:export-ydpi="96">
  <defs
     id="defs2" />
  <sodipodi:namedview
     id="base"
     pagecolor="#ffffff"
     bordercolor="#666666"
     borderopacity="1.0"
     inkscape:pageopacity="0.0"
     inkscape:pageshadow="2"
     inkscape:zoom="32.958333"
     inkscape:cx="11.905237"
     inkscape:cy="12"
     inkscape:document-units="px"
     inkscape:current-layer="layer1"
     showgrid="true"
     units="px"
     inkscape:window-width="1280"
     inkscape:window-height="961"
     inkscape:window-x="-8"
     inkscape:window-y="-8"
     inkscape:window-maximized="1"
     showguides="true"
     inkscape:guide-bbox="true">
    <inkscape:grid
       type="xygrid"
       id="grid4485" />
  </sodipodi:namedview>
  <metadata
     id="metadata5">
    <rdf:RDF>
      <cc:Work
         rdf:about="">
        <dc:format>image/svg+xml</dc:format>
        <dc:type
           rdf:resource="http://purl.org/dc/dcmitype/StillImage" />
        <dc:title />
      </cc:Work>
    </rdf:RDF>
  </metadata>
  <g
     inkscape:groupmode="layer"
     id="layer1"
     inkscape:label="zoom">
    <path
       d="m 5.931823,5.9339829 c -0.2135315,0.2135185 -0.5596379,0.2135185 -0.773171,0 L 4.1938698,4.9691803 C 3.7972133,5.2234562 3.3283526,5.3752601 2.8221109,5.3752601 c -1.4087709,0 -2.55097532,-1.142044 -2.55097532,-2.5509917 0,-1.4089475 1.14220442,-2.55099536 2.55097532,-2.55099536 1.4089532,0 2.5509703,1.14204786 2.5509703,2.55099536 0,0.5062404 -0.1517965,0.9751175 -0.4060605,1.3719338 L 5.931814,5.1608328 c 0.2135386,0.2135251 0.2135386,0.5596065 9e-6,0.7731501 z M 2.8221109,1.0021386 c -1.0062719,0 -1.82213081,0.8158624 -1.82213081,1.8221298 0,1.0064294 0.81587381,1.8221274 1.82213081,1.8221274 1.0064278,0 1.8221144,-0.815698 1.8221144,-1.8221274 0,-1.0062674 -0.8156866,-1.8221298 -1.8221144,-1.8221298 z M 3.1865373,3.9175377 H 2.4577034 V 3.1886964 H 1.7288468 V 2.4598523 H 2.4576924 V 1.7309944 H 3.1865233 V 2.4598523 H 3.9153802 V 3.1886964 H 3.1865233 v 0.7288413 z"
       id="path4485"
       inkscape:connector-curvature="0"
       style="stroke-width:0.01136877;fill:#324a5e;fill-opacity:1" />
  </g>
</svg>
