<?xml version="1.0" encoding="UTF-8" standalone="no"?>
<!-- Created with Inkscape (http://www.inkscape.org/) -->

<svg
   xmlns:dc="http://purl.org/dc/elements/1.1/"
   xmlns:cc="http://creativecommons.org/ns#"
   xmlns:rdf="http://www.w3.org/1999/02/22-rdf-syntax-ns#"
   xmlns:svg="http://www.w3.org/2000/svg"
   xmlns="http://www.w3.org/2000/svg"
   xmlns:sodipodi="http://sodipodi.sourceforge.net/DTD/sodipodi-0.dtd"
   xmlns:inkscape="http://www.inkscape.org/namespaces/inkscape"
   width="24"
   height="24"
   viewBox="0 0 6.35 6.35"
   version="1.1"
   id="svg8"
   inkscape:version="0.92.3 (2405546, 2018-03-11)"
   sodipodi:docname="operation.destructor.svg"
   inkscape:export-filename="C:\diskH\TK\valkyrie\work\eclipse\modelio.uml\uml.ui\mmimages\operation.destructor.png"
   inkscape:export-xdpi="96"
   inkscape:export-ydpi="96">
  <defs
     id="defs2">
    <marker
       inkscape:stockid="Arrow2Send"
       orient="auto"
       refY="0.0"
       refX="0.0"
       id="Arrow2Send"
       style="overflow:visible;"
       inkscape:isstock="true">
      <path
         id="path930"
         style="fill-rule:evenodd;stroke-width:0.625;stroke-linejoin:round;stroke:#b98509;stroke-opacity:1;fill:#b98509;fill-opacity:1"
         d="M 8.7185878,4.0337352 L -2.2072895,0.016013256 L 8.7185884,-4.0017078 C 6.9730900,-1.6296469 6.9831476,1.6157441 8.7185878,4.0337352 z "
         transform="scale(0.3) rotate(180) translate(-2.3,0)" />
    </marker>
    <marker
       inkscape:stockid="Arrow1Mend"
       orient="auto"
       refY="0.0"
       refX="0.0"
       id="Arrow1Mend"
       style="overflow:visible;"
       inkscape:isstock="true">
      <path
         id="path906"
         d="M 0.0,0.0 L 5.0,-5.0 L -12.5,0.0 L 5.0,5.0 L 0.0,0.0 z "
         style="fill-rule:evenodd;stroke:#b98509;stroke-width:1pt;stroke-opacity:1;fill:#b98509;fill-opacity:1"
         transform="scale(0.4) rotate(180) translate(10,0)" />
    </marker>
    <marker
       inkscape:stockid="Arrow2Send"
       orient="auto"
       refY="0"
       refX="0"
       id="Arrow2Send-7"
       style="overflow:visible"
       inkscape:isstock="true">
      <path
         inkscape:connector-curvature="0"
         id="path930-7"
         style="fill:#b98509;fill-opacity:1;fill-rule:evenodd;stroke:#b98509;stroke-width:0.625;stroke-linejoin:round;stroke-opacity:1"
         d="M 8.7185878,4.0337352 -2.2072895,0.01601326 8.7185884,-4.0017078 c -1.7454984,2.3720609 -1.7354408,5.6174519 -6e-7,8.035443 z"
         transform="matrix(-0.3,0,0,-0.3,0.69,0)" />
    </marker>
  </defs>
  <sodipodi:namedview
     id="base"
     pagecolor="#ffffff"
     bordercolor="#666666"
     borderopacity="1.0"
     inkscape:pageopacity="0.0"
     inkscape:pageshadow="2"
     inkscape:zoom="35.416667"
     inkscape:cx="12"
     inkscape:cy="12"
     inkscape:document-units="px"
     inkscape:current-layer="layer2"
     showgrid="true"
     units="px"
     inkscape:window-width="1920"
     inkscape:window-height="1017"
     inkscape:window-x="1272"
     inkscape:window-y="-8"
     inkscape:window-maximized="1"
     gridtolerance="1"
     guidetolerance="1"
     inkscape:measure-start="0,0"
     inkscape:measure-end="0,0"
     inkscape:pagecheckerboard="false"
     showguides="true"
     inkscape:guide-bbox="true">
    <inkscape:grid
       type="xygrid"
       id="grid4485" />
  </sodipodi:namedview>
  <metadata
     id="metadata5">
    <rdf:RDF>
      <cc:Work
         rdf:about="">
        <dc:format>image/svg+xml</dc:format>
        <dc:type
           rdf:resource="http://purl.org/dc/dcmitype/StillImage" />
        <dc:title />
      </cc:Work>
    </rdf:RDF>
  </metadata>
  <g
     inkscape:groupmode="layer"
     id="layer1"
     inkscape:label="class 1"
     style="display:none">
    <path
       style="fill:#b9850a;fill-opacity:1;fill-rule:evenodd;stroke:none;stroke-width:0.36720237px;stroke-linecap:butt;stroke-linejoin:miter;stroke-opacity:1"
       d="M 1.8614277,1.5949735 C 0.79218929,1.5905035 0.79127205,2.3783171 0.79127205,2.3783171 v 0.1944873 1.1888699 0.1944874 c 0,0 -0.0252298,0.7945276 1.04400855,0.7900572 1.0440086,-0.00436 1.0751361,-0.7871272 1.0751361,-0.7871272 V 3.7691449 2.580275 2.3903282 c 0,0 -0.00498,-0.7909893 -1.048989,-0.7953547 z m 0.00374,0.2571098 C 2.1166667,1.8626483 2.1270576,2.38125 2.1270576,2.38125 v 0.2103792 1.1888699 0.2096225 c 0,0 0.00592,0.5077951 -0.2656252,0.5077951 0,0 -0.2743858,-9.751e-4 -0.2743858,-0.541755 V 3.7616743 2.5728044 2.3783171 c 0,-0.54078 0.2781211,-0.5262338 0.2781211,-0.5262338 z"
       id="path864"
       inkscape:connector-curvature="0"
       sodipodi:nodetypes="sccccccsccsccccccsccsc" />
    <text
       xml:space="preserve"
       style="font-style:normal;font-variant:normal;font-weight:bold;font-stretch:normal;font-size:1.39133656px;line-height:125%;font-family:Impact;-inkscape-font-specification:'Impact Bold';letter-spacing:0px;word-spacing:0px;display:inline;fill:#b9850a;fill-opacity:1;stroke:none;stroke-width:0.26087558px;stroke-linecap:butt;stroke-linejoin:miter;stroke-opacity:1"
       x="2.9453485"
       y="4.0617523"
       id="text843"
       transform="scale(1.0142127,0.98598648)"><tspan
         sodipodi:role="line"
         id="tspan841"
         x="2.9453485"
         y="4.0617523"
         style="font-style:normal;font-variant:normal;font-weight:bold;font-stretch:normal;font-size:3.4783411px;font-family:Cambria;-inkscape-font-specification:'Cambria Bold';fill:#b9850a;fill-opacity:1;stroke-width:0.26087558px">()</tspan></text>
  </g>
  <g
     inkscape:groupmode="layer"
     id="layer3"
     inkscape:label="class 2"
     style="display:none">
    <circle
       style="opacity:1;fill:#7f0707;fill-opacity:1;fill-rule:evenodd;stroke:none;stroke-width:0.52916664;stroke-linecap:round;stroke-linejoin:miter;stroke-miterlimit:4;stroke-dasharray:none;stroke-opacity:1;paint-order:stroke fill markers"
       id="path915"
       cx="5.2294116"
       cy="1.1542058"
       r="0.88152939" />
  </g>
  <g
     inkscape:groupmode="layer"
     id="layer2"
     inkscape:label="class 3">
    <g
       aria-label="D"
       transform="scale(1.1884224,0.84145169)"
       style="font-style:normal;font-variant:normal;font-weight:normal;font-stretch:normal;font-size:4.43336201px;line-height:125%;font-family:'Roboto Condensed';-inkscape-font-specification:'Roboto Condensed, ';letter-spacing:0px;word-spacing:0px;fill:#7f0707;fill-opacity:1;stroke:none;stroke-width:0.2375015px;stroke-linecap:butt;stroke-linejoin:miter;stroke-opacity:1"
       id="text863">
      <path
         d="M 0.87858828,5.3446851 V 2.1928418 H 1.7444793 q 0.5022168,0 0.818267,0.3788273 0.318215,0.3788273 0.318215,0.9741274 v 0.4480986 q 0,0.5974648 -0.318215,0.9741274 -0.3160502,0.3766626 -0.818267,0.3766626 z M 1.318028,2.5305393 V 5.011317 h 0.4112982 q 0.3312033,0 0.5216993,-0.2835793 Q 2.4436863,4.4441584 2.4436863,3.9938951 V 3.541467 q 0,-0.4459338 -0.1926608,-0.7273484 Q 2.0605295,2.5305393 1.7293262,2.5305393 Z"
         style="font-style:normal;font-variant:normal;font-weight:normal;font-stretch:normal;font-size:4.43336201px;font-family:'Roboto Condensed';-inkscape-font-specification:'Roboto Condensed, ';fill:#7f0707;fill-opacity:1;stroke-width:0.2375015px"
         id="path891"
         inkscape:connector-curvature="0" />
    </g>
    <g
       aria-label="()"
       transform="matrix(1.1278165,0,0,1.0666722,-0.02473138,-0.64531306)"
       style="font-style:normal;font-variant:normal;font-weight:normal;font-stretch:normal;font-size:2.95901823px;line-height:125%;font-family:'Oswald Regular';-inkscape-font-specification:'Oswald Regular, ';letter-spacing:0px;word-spacing:0px;display:inline;fill:#7f0707;fill-opacity:1;stroke:none;stroke-width:0.18493864px;stroke-linecap:butt;stroke-linejoin:miter;stroke-opacity:1"
       id="text869">
      <path
         d="m 3.2787758,3.559757 q 0,-0.5548159 0.1892732,-0.9507002 0.1892731,-0.3973291 0.4291154,-0.5158054 h 0.00867 l 0.072242,0.2066111 Q 3.8263676,2.4414562 3.7208948,2.7593195 3.6168668,3.0757379 3.6168668,3.5568673 v 0.040455 q 0,0.4811294 0.104028,0.7975478 0.1040279,0.3164185 0.2571803,0.4609018 l -0.072242,0.2037215 h -0.00867 Q 3.6573221,4.9410175 3.468049,4.546578 3.2787758,4.1521386 3.2787758,3.594433 Z"
         style="font-style:normal;font-variant:normal;font-weight:bold;font-stretch:condensed;font-size:2.95901823px;font-family:'Roboto Condensed';-inkscape-font-specification:'Roboto Condensed, Bold Condensed';fill:#7f0707;fill-opacity:1;stroke-width:0.18493864px"
         id="path885"
         inkscape:connector-curvature="0" />
      <path
         d="m 4.8131886,3.594433 q 0,0.5418124 -0.1979422,0.9449209 -0.1979421,0.4045532 -0.4421189,0.5201399 h -0.00867 L 4.0893272,4.8557723 Q 4.2395898,4.7141787 4.3450627,4.3963154 4.4505355,4.0784521 4.4505355,3.5973227 v -0.040455 q 0,-0.4796846 -0.1069177,-0.7989927 Q 4.238145,2.4385665 4.0893272,2.2969729 l 0.075131,-0.2037215 h 0.00867 Q 4.4173043,2.208838 4.6152464,2.6148361 4.8131886,3.0208342 4.8131886,3.559757 Z"
         style="font-style:normal;font-variant:normal;font-weight:bold;font-stretch:condensed;font-size:2.95901823px;font-family:'Roboto Condensed';-inkscape-font-specification:'Roboto Condensed, Bold Condensed';fill:#7f0707;fill-opacity:1;stroke-width:0.18493864px"
         id="path887"
         inkscape:connector-curvature="0" />
    </g>
  </g>
</svg>
