<?xml version="1.0" encoding="UTF-8" standalone="no"?>
<!-- Created with Inkscape (http://www.inkscape.org/) -->

<svg
   xmlns:dc="http://purl.org/dc/elements/1.1/"
   xmlns:cc="http://creativecommons.org/ns#"
   xmlns:rdf="http://www.w3.org/1999/02/22-rdf-syntax-ns#"
   xmlns:svg="http://www.w3.org/2000/svg"
   xmlns="http://www.w3.org/2000/svg"
   xmlns:sodipodi="http://sodipodi.sourceforge.net/DTD/sodipodi-0.dtd"
   xmlns:inkscape="http://www.inkscape.org/namespaces/inkscape"
   width="24"
   height="24"
   viewBox="0 0 6.35 6.35"
   version="1.1"
   id="svg8"
   inkscape:version="0.92.3 (2405546, 2018-03-11)"
   sodipodi:docname="traceability.svg"
   inkscape:export-filename="C:\diskH\TK\valkyrie\work\eclipse\modelio.uml\uml.ui\mmimages\traceability.png"
   inkscape:export-xdpi="96"
   inkscape:export-ydpi="96">
  <defs
     id="defs2" />
  <sodipodi:namedview
     id="base"
     pagecolor="#ffffff"
     bordercolor="#666666"
     borderopacity="1.0"
     inkscape:pageopacity="0.0"
     inkscape:pageshadow="2"
     inkscape:zoom="32.958333"
     inkscape:cx="6.7380272"
     inkscape:cy="11.99635"
     inkscape:document-units="px"
     inkscape:current-layer="layer9"
     showgrid="true"
     units="px"
     inkscape:window-width="1280"
     inkscape:window-height="961"
     inkscape:window-x="-8"
     inkscape:window-y="-8"
     inkscape:window-maximized="1">
    <inkscape:grid
       type="xygrid"
       id="grid4485" />
  </sodipodi:namedview>
  <metadata
     id="metadata5">
    <rdf:RDF>
      <cc:Work
         rdf:about="">
        <dc:format>image/svg+xml</dc:format>
        <dc:type
           rdf:resource="http://purl.org/dc/dcmitype/StillImage" />
        <dc:title />
      </cc:Work>
    </rdf:RDF>
  </metadata>
  <g
     inkscape:groupmode="layer"
     id="layer9"
     inkscape:label="link">
    <path
       inkscape:connector-curvature="0"
       d="M 0.28352294,3.1907215 A 1.4552069,1.4552069 0 0 1 1.7387302,1.7355121 H 2.8301387 A 1.4552069,1.4552069 0 0 1 4.2853456,3.1907215 H 3.5577423 A 0.727604,0.727604 0 0 0 2.8301387,2.4631166 H 1.7387302 A 0.727604,0.727604 0 0 0 1.0111272,3.1907215 0.727604,0.727604 0 0 0 1.7387302,3.918325 L 2.102534,4.6459283 H 1.7387302 A 1.4552069,1.4552069 0 0 1 0.28352294,3.1907215 Z M 4.2853456,1.7355121 H 4.649148 A 1.4552069,1.4552069 0 0 1 6.1043565,3.1907215 1.4552069,1.4552069 0 0 1 4.649148,4.6459283 H 3.5577423 A 1.4552069,1.4552069 0 0 1 2.102534,3.1907215 H 2.8301387 A 0.727604,0.727604 0 0 0 3.5577423,3.918325 H 4.649148 A 0.727604,0.727604 0 0 0 5.3767531,3.1907215 0.727604,0.727604 0 0 0 4.649148,2.4631166 Z"
       id="path5749"
       style="stroke-width:0.18190101;fill:#4f5d73;fill-opacity:1" />
  </g>
</svg>
