<?xml version="1.0" encoding="UTF-8" standalone="no"?>
<!-- Created with Inkscape (http://www.inkscape.org/) -->

<svg
   xmlns:dc="http://purl.org/dc/elements/1.1/"
   xmlns:cc="http://creativecommons.org/ns#"
   xmlns:rdf="http://www.w3.org/1999/02/22-rdf-syntax-ns#"
   xmlns:svg="http://www.w3.org/2000/svg"
   xmlns="http://www.w3.org/2000/svg"
   xmlns:sodipodi="http://sodipodi.sourceforge.net/DTD/sodipodi-0.dtd"
   xmlns:inkscape="http://www.inkscape.org/namespaces/inkscape"
   width="64"
   height="64"
   viewBox="0 0 16.933333 16.933333"
   version="1.1"
   id="svg8"
   inkscape:version="0.92.3 (2405546, 2018-03-11)"
   sodipodi:docname="placeholder64x64.svg"
   inkscape:export-filename="H:\TK\valkyrie\work\eclipse\platform.services\ui\images\placeholder64x64.png"
   inkscape:export-xdpi="96"
   inkscape:export-ydpi="96">
  <defs
     id="defs2" />
  <sodipodi:namedview
     id="base"
     pagecolor="#ffffff"
     bordercolor="#666666"
     borderopacity="1.0"
     inkscape:pageopacity="0.0"
     inkscape:pageshadow="2"
     inkscape:zoom="13.28125"
     inkscape:cx="19.425882"
     inkscape:cy="32"
     inkscape:document-units="px"
     inkscape:current-layer="layer3"
     showgrid="true"
     units="px"
     inkscape:pagecheckerboard="true"
     inkscape:window-width="1920"
     inkscape:window-height="1017"
     inkscape:window-x="1912"
     inkscape:window-y="-8"
     inkscape:window-maximized="1">
    <inkscape:grid
       type="xygrid"
       id="grid4485" />
  </sodipodi:namedview>
  <metadata
     id="metadata5">
    <rdf:RDF>
      <cc:Work
         rdf:about="">
        <dc:format>image/svg+xml</dc:format>
        <dc:type
           rdf:resource="http://purl.org/dc/dcmitype/StillImage" />
        <dc:title />
      </cc:Work>
    </rdf:RDF>
  </metadata>
  <g
     inkscape:groupmode="layer"
     id="layer2"
     inkscape:label="eraser 2"
     style="display:inline"
     transform="translate(0,10.583333)">
    <rect
       style="opacity:1;fill:#f0f0f0;fill-opacity:1;fill-rule:evenodd;stroke:#444444;stroke-width:0.5291667;stroke-linecap:round;stroke-linejoin:miter;stroke-miterlimit:4;stroke-dasharray:none;stroke-opacity:1;paint-order:stroke fill markers"
       id="rect927"
       width="15.875"
       height="15.875"
       x="0.52916664"
       y="-10.054167"
       ry="0.52916664" />
  </g>
  <g
     inkscape:groupmode="layer"
     id="layer3"
     inkscape:label="texte 1"
     style="display:inline"
     transform="translate(0,10.583333)">
    <path
       style="fill:none;fill-rule:evenodd;stroke:#444444;stroke-width:0.36444527;stroke-linecap:butt;stroke-linejoin:miter;stroke-miterlimit:4;stroke-dasharray:none;stroke-opacity:1"
       d="M 6.7341128,0.82904321 V -1.0583332 L 5.9093257,0.27190451 h 1.348126"
       id="path872"
       inkscape:connector-curvature="0"
       sodipodi:nodetypes="cccc" />
    <g
       id="g4533"
       transform="matrix(1.3774309,0,0,1.3774309,4.2777126,-4.2923498)">
      <path
         sodipodi:nodetypes="cc"
         inkscape:connector-curvature="0"
         id="path892"
         d="M 2.6458334,3.7041667 3.7041667,2.6458334"
         style="fill:none;fill-rule:evenodd;stroke:#444444;stroke-width:0.26458335px;stroke-linecap:butt;stroke-linejoin:miter;stroke-opacity:1" />
      <path
         sodipodi:nodetypes="cc"
         inkscape:connector-curvature="0"
         id="path894"
         d="M 2.6458334,2.6458334 3.7041667,3.7041667"
         style="fill:none;fill-rule:evenodd;stroke:#444444;stroke-width:0.26458335px;stroke-linecap:butt;stroke-linejoin:miter;stroke-opacity:1" />
    </g>
    <g
       aria-label="Image"
       style="font-style:normal;font-variant:normal;font-weight:normal;font-stretch:normal;font-size:1.41111112px;line-height:125%;font-family:'Arial Unicode MS';-inkscape-font-specification:'Arial Unicode MS';letter-spacing:0px;word-spacing:0px;fill:#444444;fill-opacity:1;stroke:none;stroke-width:0.26458332px;stroke-linecap:butt;stroke-linejoin:miter;stroke-opacity:1"
       id="text4537">
      <path
         d="m 4.3803588,-3.5547547 h -0.47625 V -6.105338 h 0.47625 z"
         style="font-style:normal;font-variant:normal;font-weight:bold;font-stretch:normal;font-size:3.52777767px;font-family:Lato;-inkscape-font-specification:'Lato Bold';fill:#444444;fill-opacity:1;stroke-width:0.26458332px"
         id="path826"
         inkscape:connector-curvature="0" />
      <path
         d="m 4.9305268,-3.5547547 v -1.80975 H 5.196874 q 0.084667,0 0.111125,0.079375 l 0.028222,0.1340556 q 0.047625,-0.052917 0.098778,-0.097014 0.052917,-0.044097 0.111125,-0.075847 0.059972,-0.03175 0.127,-0.049389 0.068792,-0.019403 0.1499305,-0.019403 0.1710973,0 0.2804584,0.093486 0.111125,0.091722 0.1658055,0.2451806 0.042333,-0.089958 0.1058334,-0.1534584 0.0635,-0.065264 0.1393472,-0.1058333 0.075847,-0.040569 0.1605139,-0.059972 0.086431,-0.019403 0.1728611,-0.019403 0.1499305,0 0.2663472,0.045861 0.1164166,0.045861 0.1957916,0.1340556 0.079375,0.088194 0.1199445,0.2151944 0.042333,0.127 0.042333,0.2910417 v 1.1518194 H 7.0366101 v -1.1518194 q 0,-0.1728611 -0.075847,-0.2592917 -0.075847,-0.088194 -0.2222499,-0.088194 -0.067028,0 -0.1252362,0.022931 -0.056444,0.022931 -0.1005416,0.067028 -0.042333,0.042333 -0.067028,0.1075972 -0.024694,0.065264 -0.024694,0.1499306 v 1.1518194 h -0.437445 v -1.1518194 q 0,-0.1816806 -0.074083,-0.2645834 -0.072319,-0.082903 -0.2151944,-0.082903 -0.093486,0 -0.1763889,0.047625 -0.081139,0.045861 -0.1516945,0.127 v 1.3246805 z"
         style="font-style:normal;font-variant:normal;font-weight:bold;font-stretch:normal;font-size:3.52777767px;font-family:Lato;-inkscape-font-specification:'Lato Bold';fill:#444444;fill-opacity:1;stroke-width:0.26458332px"
         id="path828"
         inkscape:connector-curvature="0" />
      <path
         d="M 9.3183655,-3.5547547 H 9.1225738 q -0.061736,0 -0.097014,-0.017639 -0.035278,-0.019403 -0.052917,-0.075847 l -0.038806,-0.1287639 q -0.068792,0.061736 -0.1358194,0.1093611 -0.065264,0.045861 -0.1358194,0.077611 -0.070556,0.03175 -0.1499306,0.047625 -0.079375,0.015875 -0.1763889,0.015875 -0.1146528,0 -0.2116666,-0.029986 -0.097014,-0.03175 -0.1675695,-0.093486 -0.068792,-0.061736 -0.1075972,-0.1534584 -0.038806,-0.091722 -0.038806,-0.2134305 0,-0.1023056 0.052917,-0.2010833 0.054681,-0.1005417 0.1799167,-0.1799167 0.1252361,-0.081139 0.333375,-0.1340555 0.2081388,-0.052917 0.5168194,-0.059972 v -0.1058333 q 0,-0.1816805 -0.077611,-0.2681111 -0.075847,-0.088194 -0.22225,-0.088194 -0.1058333,0 -0.1763889,0.024694 -0.070556,0.024694 -0.1234722,0.056444 -0.051153,0.029986 -0.09525,0.054681 -0.044097,0.024694 -0.097014,0.024694 -0.044097,0 -0.075847,-0.022931 -0.03175,-0.022931 -0.051153,-0.056444 l -0.079375,-0.1393472 q 0.3122083,-0.28575 0.7531805,-0.28575 0.15875,0 0.2822223,0.052917 0.1252361,0.051153 0.2116666,0.1446389 0.086431,0.091722 0.1305278,0.2204861 0.045861,0.1287639 0.045861,0.2822222 z M 8.4716989,-3.8263936 q 0.067028,0 0.1234722,-0.012347 0.056444,-0.012347 0.1058333,-0.037042 0.051153,-0.024694 0.097014,-0.059972 0.047625,-0.037042 0.09525,-0.086431 V -4.327338 q -0.1905,0.00882 -0.3192639,0.033514 -0.127,0.022931 -0.2046111,0.059972 -0.077611,0.037042 -0.111125,0.086431 -0.03175,0.049389 -0.03175,0.1075972 0,0.1146528 0.067028,0.1640417 0.068792,0.049389 0.1781525,0.049389 z"
         style="font-style:normal;font-variant:normal;font-weight:bold;font-stretch:normal;font-size:3.52777767px;font-family:Lato;-inkscape-font-specification:'Lato Bold';fill:#444444;fill-opacity:1;stroke-width:0.26458332px"
         id="path830"
         inkscape:connector-curvature="0" />
      <path
         d="m 10.37295,-5.3962547 q 0.116417,0 0.218723,0.024694 0.102305,0.022931 0.186972,0.068792 h 0.520347 v 0.1622778 q 0,0.040569 -0.02117,0.0635 -0.02117,0.022931 -0.07232,0.03175 l -0.162278,0.029986 q 0.01764,0.045861 0.02646,0.097014 0.01058,0.051153 0.01058,0.1075972 0,0.1340556 -0.05468,0.2434167 -0.05292,0.1075972 -0.148166,0.1834444 -0.09349,0.075847 -0.224014,0.1181806 -0.128764,0.040569 -0.280459,0.040569 -0.102305,0 -0.199319,-0.019403 -0.08467,0.051153 -0.08467,0.1146528 0,0.054681 0.04939,0.081139 0.05115,0.024694 0.132292,0.035278 0.0829,0.010583 0.186972,0.014111 0.104069,0.00176 0.213431,0.010583 0.109361,0.00882 0.21343,0.03175 0.10407,0.021167 0.185208,0.068792 0.0829,0.047625 0.132292,0.1305277 0.05115,0.081139 0.05115,0.2099028 0,0.1199445 -0.05997,0.2328333 -0.05821,0.1128889 -0.171098,0.2010834 -0.111125,0.088194 -0.273402,0.1411111 -0.162278,0.05468 -0.370417,0.05468 -0.206375,0 -0.358069,-0.040569 -0.1516948,-0.038806 -0.2522365,-0.1058333 -0.098778,-0.065264 -0.1481667,-0.1516945 -0.049389,-0.086431 -0.049389,-0.1799166 0,-0.127 0.077611,-0.2134306 0.077611,-0.086431 0.2151944,-0.1375833 -0.067028,-0.037042 -0.1075972,-0.098778 -0.04057,-0.061736 -0.04057,-0.1605139 0,-0.040569 0.014111,-0.082903 0.014111,-0.044097 0.042333,-0.08643 0.029986,-0.042333 0.074083,-0.079375 0.044097,-0.038806 0.1040695,-0.068792 -0.1375834,-0.074083 -0.2169584,-0.1975555 -0.077611,-0.1234722 -0.077611,-0.2892778 0,-0.1340555 0.052917,-0.2416528 0.05468,-0.1093611 0.1499305,-0.1852083 0.097014,-0.077611 0.2275424,-0.1181805 0.132291,-0.04057 0.287513,-0.04057 z m 0.478014,1.9226389 q 0,-0.052917 -0.03175,-0.086431 -0.03175,-0.033514 -0.08643,-0.051153 -0.05468,-0.019403 -0.128764,-0.028222 -0.07232,-0.00882 -0.155222,-0.012347 -0.08114,-0.00529 -0.169334,-0.00882 -0.08643,-0.00529 -0.167569,-0.015875 -0.07408,0.040569 -0.1199446,0.097014 -0.044097,0.054681 -0.044097,0.127 0,0.047625 0.02293,0.088195 0.024695,0.042333 0.075847,0.072319 0.05292,0.029986 0.135819,0.045861 0.0829,0.017639 0.202848,0.017639 0.121708,0 0.209902,-0.019403 0.0882,-0.017639 0.144639,-0.051153 0.05821,-0.03175 0.08467,-0.077611 0.02646,-0.044097 0.02646,-0.097014 z M 10.37295,-4.5037269 q 0.08114,0 0.141111,-0.021167 0.05997,-0.02293 0.09878,-0.061736 0.04057,-0.038806 0.05997,-0.093486 0.02117,-0.054681 0.02117,-0.1199445 0,-0.1340555 -0.08114,-0.2116666 -0.07937,-0.079375 -0.239889,-0.079375 -0.160514,0 -0.241652,0.079375 -0.07937,0.077611 -0.07937,0.2116666 0,0.0635 0.0194,0.1181806 0.02117,0.054681 0.05997,0.09525 0.04057,0.038806 0.100541,0.061736 0.06174,0.021167 0.141111,0.021167 z"
         style="font-style:normal;font-variant:normal;font-weight:bold;font-stretch:normal;font-size:3.52777767px;font-family:Lato;-inkscape-font-specification:'Lato Bold';fill:#444444;fill-opacity:1;stroke-width:0.26458332px"
         id="path832"
         inkscape:connector-curvature="0" />
      <path
         d="m 12.32056,-5.3927269 q 0.171097,0 0.313972,0.054681 0.144639,0.05468 0.248708,0.1605138 0.10407,0.1040695 0.162278,0.2575278 0.05821,0.1516944 0.05821,0.3474861 0,0.049389 -0.0053,0.082903 -0.0035,0.03175 -0.01587,0.051153 -0.01058,0.017639 -0.02999,0.026458 -0.0194,0.00706 -0.04939,0.00706 h -1.118306 q 0.0194,0.2786945 0.149931,0.4092223 0.130528,0.1305277 0.345722,0.1305277 0.105833,0 0.181681,-0.024694 0.07761,-0.024694 0.134055,-0.054681 0.05821,-0.029986 0.100542,-0.05468 0.0441,-0.024694 0.08467,-0.024694 0.02646,0 0.04586,0.010583 0.0194,0.010583 0.03351,0.029986 l 0.127,0.15875 q -0.07232,0.084667 -0.162277,0.142875 -0.08996,0.056444 -0.188736,0.091722 -0.09701,0.033514 -0.19932,0.047625 -0.100542,0.014111 -0.195792,0.014111 -0.188736,0 -0.351013,-0.061736 -0.162278,-0.0635 -0.282223,-0.1852083 -0.119944,-0.1234723 -0.188736,-0.3033889 -0.06879,-0.1816806 -0.06879,-0.4198056 0,-0.1852083 0.05997,-0.3474861 0.05997,-0.1640416 0.171097,-0.2839861 0.112889,-0.1217083 0.273403,-0.1922638 0.162278,-0.070556 0.365125,-0.070556 z m 0.0088,0.3122083 q -0.1905,0 -0.298097,0.1075972 -0.107597,0.1075973 -0.137583,0.3051528 h 0.818444 q 0,-0.084667 -0.02293,-0.15875 -0.02293,-0.075847 -0.07056,-0.1322916 -0.04763,-0.056444 -0.119944,-0.088194 -0.07232,-0.033514 -0.169334,-0.033514 z"
         style="font-style:normal;font-variant:normal;font-weight:bold;font-stretch:normal;font-size:3.52777767px;font-family:Lato;-inkscape-font-specification:'Lato Bold';fill:#444444;fill-opacity:1;stroke-width:0.26458332px"
         id="path834"
         inkscape:connector-curvature="0" />
    </g>
    <g
       aria-label="6"
       style="font-style:normal;font-variant:normal;font-weight:normal;font-stretch:normal;font-size:1.30210114px;line-height:125%;font-family:'Arial Unicode MS';-inkscape-font-specification:'Arial Unicode MS';letter-spacing:0px;word-spacing:0px;fill:#444444;fill-opacity:1;stroke:none;stroke-width:0.24414395px;stroke-linecap:butt;stroke-linejoin:miter;stroke-opacity:1"
       id="text4569"
       transform="translate(0.29774844,-0.01223262)">
      <path
         d="m 4.3595407,-0.68190939 q 0.1334654,0 0.2587926,0.0439459 0.1269549,0.0439459 0.2229849,0.13346537 0.09603,0.0878918 0.1546245,0.21972957 0.058595,0.13183774 0.058595,0.30762139 0,0.16439027 -0.060222,0.30924902 -0.060222,0.14323112 -0.1692732,0.25065447 -0.109051,0.10742334 -0.2636755,0.16927315 -0.1529969,0.0618498 -0.3385463,0.0618498 -0.1888046,0 -0.3385463,-0.0602222 Q 3.7345322,0.69343493 3.6287365,0.58601159 3.5229408,0.47696062 3.4659738,0.32559136 3.4106345,0.17259448 3.4106345,-0.01295493 q 0,-0.1660179 0.066733,-0.34017392 0.06836,-0.17578366 0.2099638,-0.36458832 L 4.2488622,-1.4713082 q 0.029297,-0.039063 0.084637,-0.066733 0.056967,-0.02767 0.1302101,-0.02767 h 0.3580779 l -0.6982518,0.85450383 q -0.022787,0.0276696 -0.043946,0.0520841 -0.019532,0.0244144 -0.039063,0.0504564 0.06836,-0.0341802 0.1464863,-0.0537117 0.079754,-0.0195315 0.172528,-0.0195308 z M 3.796382,0.04889487 q 0,0.09765759 0.026042,0.17903891 0.02767,0.0797537 0.079754,0.13672062 0.053712,0.0569669 0.1318378,0.0895195 0.078126,0.0309249 0.1806665,0.0309249 0.09603,0 0.1757837,-0.0325525 0.081381,-0.0325525 0.1383482,-0.0911471 0.058594,-0.0585946 0.091147,-0.13672062 0.032553,-0.0797537 0.032553,-0.1725284 0,-0.10091284 -0.030925,-0.18066654 -0.030925,-0.0813813 -0.087892,-0.13672062 -0.056967,-0.0569669 -0.1367206,-0.0862642 -0.079754,-0.0292973 -0.1757837,-0.0292973 -0.09603,0 -0.174156,0.0325525 -0.078126,0.0325525 -0.135093,0.0911471 -0.055339,0.0569669 -0.086264,0.13672062 -0.029297,0.07812606 -0.029298,0.16927313 z"
         style="font-style:normal;font-variant:normal;font-weight:bold;font-stretch:normal;font-size:3.25525284px;font-family:Lato;-inkscape-font-specification:'Lato Bold';fill:#444444;fill-opacity:1;stroke-width:0.24414395px"
         id="path4571"
         inkscape:connector-curvature="0" />
    </g>
    <path
       style="display:inline;fill:none;fill-rule:evenodd;stroke:#444444;stroke-width:0.36444527;stroke-linecap:butt;stroke-linejoin:miter;stroke-miterlimit:4;stroke-dasharray:none;stroke-opacity:1"
       d="M 12.850569,0.82172219 V -1.0656542 l -0.824787,1.33023765 h 1.348126"
       id="path872-4"
       inkscape:connector-curvature="0"
       sodipodi:nodetypes="cccc" />
    <g
       aria-label="6"
       style="font-style:normal;font-variant:normal;font-weight:normal;font-stretch:normal;font-size:1.30210114px;line-height:125%;font-family:'Arial Unicode MS';-inkscape-font-specification:'Arial Unicode MS';letter-spacing:0px;word-spacing:0px;display:inline;fill:#444444;fill-opacity:1;stroke:none;stroke-width:0.24414395px;stroke-linecap:butt;stroke-linejoin:miter;stroke-opacity:1"
       id="text4569-2"
       transform="translate(6.4142023,-0.01955385)">
      <path
         d="m 4.3595407,-0.68190939 q 0.1334654,0 0.2587926,0.0439459 0.1269549,0.0439459 0.2229849,0.13346537 0.09603,0.0878918 0.1546245,0.21972957 0.058595,0.13183774 0.058595,0.30762139 0,0.16439027 -0.060222,0.30924902 -0.060222,0.14323112 -0.1692732,0.25065447 -0.109051,0.10742334 -0.2636755,0.16927315 -0.1529969,0.0618498 -0.3385463,0.0618498 -0.1888046,0 -0.3385463,-0.0602222 Q 3.7345322,0.69343493 3.6287365,0.58601159 3.5229408,0.47696062 3.4659738,0.32559136 3.4106345,0.17259448 3.4106345,-0.01295493 q 0,-0.1660179 0.066733,-0.34017392 0.06836,-0.17578366 0.2099638,-0.36458832 L 4.2488622,-1.4713082 q 0.029297,-0.039063 0.084637,-0.066733 0.056967,-0.02767 0.1302101,-0.02767 h 0.3580779 l -0.6982518,0.85450383 q -0.022787,0.0276696 -0.043946,0.0520841 -0.019532,0.0244144 -0.039063,0.0504564 0.06836,-0.0341802 0.1464863,-0.0537117 0.079754,-0.0195315 0.172528,-0.0195308 z M 3.796382,0.04889487 q 0,0.09765759 0.026042,0.17903891 0.02767,0.0797537 0.079754,0.13672062 0.053712,0.0569669 0.1318378,0.0895195 0.078126,0.0309249 0.1806665,0.0309249 0.09603,0 0.1757837,-0.0325525 0.081381,-0.0325525 0.1383482,-0.0911471 0.058594,-0.0585946 0.091147,-0.13672062 0.032553,-0.0797537 0.032553,-0.1725284 0,-0.10091284 -0.030925,-0.18066654 -0.030925,-0.0813813 -0.087892,-0.13672062 -0.056967,-0.0569669 -0.1367206,-0.0862642 -0.079754,-0.0292973 -0.1757837,-0.0292973 -0.09603,0 -0.174156,0.0325525 -0.078126,0.0325525 -0.135093,0.0911471 -0.055339,0.0569669 -0.086264,0.13672062 -0.029297,0.07812606 -0.029298,0.16927313 z"
         style="font-style:normal;font-variant:normal;font-weight:bold;font-stretch:normal;font-size:3.25525284px;font-family:Lato;-inkscape-font-specification:'Lato Bold';fill:#444444;fill-opacity:1;stroke-width:0.24414395px"
         id="path4571-0"
         inkscape:connector-curvature="0" />
    </g>
  </g>
</svg>
