<?xml version="1.0" encoding="UTF-8" standalone="no"?>
<!-- Created with Inkscape (http://www.inkscape.org/) -->

<svg
   xmlns:dc="http://purl.org/dc/elements/1.1/"
   xmlns:cc="http://creativecommons.org/ns#"
   xmlns:rdf="http://www.w3.org/1999/02/22-rdf-syntax-ns#"
   xmlns:svg="http://www.w3.org/2000/svg"
   xmlns="http://www.w3.org/2000/svg"
   xmlns:sodipodi="http://sodipodi.sourceforge.net/DTD/sodipodi-0.dtd"
   xmlns:inkscape="http://www.inkscape.org/namespaces/inkscape"
   width="48"
   height="48"
   viewBox="0 0 12.7 12.7"
   version="1.1"
   id="svg8"
   inkscape:version="0.92.3 (2405546, 2018-03-11)"
   sodipodi:docname="placeholder48x48.svg"
   inkscape:export-filename="H:\TK\valkyrie\work\eclipse\platform.services\ui\images\placeholder48x48.png"
   inkscape:export-xdpi="96"
   inkscape:export-ydpi="96">
  <defs
     id="defs2" />
  <sodipodi:namedview
     id="base"
     pagecolor="#ffffff"
     bordercolor="#666666"
     borderopacity="1.0"
     inkscape:pageopacity="0.0"
     inkscape:pageshadow="2"
     inkscape:zoom="17.708333"
     inkscape:cx="14.569412"
     inkscape:cy="24"
     inkscape:document-units="px"
     inkscape:current-layer="layer3"
     showgrid="true"
     units="px"
     inkscape:pagecheckerboard="true"
     inkscape:window-width="1920"
     inkscape:window-height="1017"
     inkscape:window-x="1912"
     inkscape:window-y="-8"
     inkscape:window-maximized="1">
    <inkscape:grid
       type="xygrid"
       id="grid4485" />
  </sodipodi:namedview>
  <metadata
     id="metadata5">
    <rdf:RDF>
      <cc:Work
         rdf:about="">
        <dc:format>image/svg+xml</dc:format>
        <dc:type
           rdf:resource="http://purl.org/dc/dcmitype/StillImage" />
        <dc:title />
      </cc:Work>
    </rdf:RDF>
  </metadata>
  <g
     inkscape:groupmode="layer"
     id="layer2"
     inkscape:label="eraser 2"
     style="display:inline"
     transform="translate(0,6.3500001)">
    <rect
       style="opacity:1;fill:#f0f0f0;fill-opacity:1;fill-rule:evenodd;stroke:#444444;stroke-width:0.5291667;stroke-linecap:round;stroke-linejoin:miter;stroke-miterlimit:4;stroke-dasharray:none;stroke-opacity:1;paint-order:stroke fill markers"
       id="rect927"
       width="11.641667"
       height="11.641668"
       x="0.52916664"
       y="-5.8208332"
       ry="0.52916664" />
  </g>
  <g
     inkscape:groupmode="layer"
     id="layer3"
     inkscape:label="texte 1"
     style="display:inline"
     transform="translate(0,6.3500001)">
    <path
       style="fill:none;fill-rule:evenodd;stroke:#444444;stroke-width:0.36444527;stroke-linecap:butt;stroke-linejoin:miter;stroke-miterlimit:4;stroke-dasharray:none;stroke-opacity:1"
       d="M 2.6458333,2.9457096 V 1.0583332 L 1.8210462,2.3885709 h 1.348126"
       id="path872"
       inkscape:connector-curvature="0"
       sodipodi:nodetypes="cccc" />
    <g
       id="g4533"
       transform="matrix(1.3774309,0,0,1.3774309,1.7769332,-2.1756834)">
      <path
         sodipodi:nodetypes="cc"
         inkscape:connector-curvature="0"
         id="path892"
         d="M 2.6458334,3.7041667 3.7041667,2.6458334"
         style="fill:none;fill-rule:evenodd;stroke:#444444;stroke-width:0.26458335px;stroke-linecap:butt;stroke-linejoin:miter;stroke-opacity:1" />
      <path
         sodipodi:nodetypes="cc"
         inkscape:connector-curvature="0"
         id="path894"
         d="M 2.6458334,2.6458334 3.7041667,3.7041667"
         style="fill:none;fill-rule:evenodd;stroke:#444444;stroke-width:0.26458335px;stroke-linecap:butt;stroke-linejoin:miter;stroke-opacity:1" />
    </g>
    <g
       aria-label="Image"
       style="font-style:normal;font-variant:normal;font-weight:normal;font-stretch:normal;font-size:1.41111112px;line-height:125%;font-family:'Arial Unicode MS';-inkscape-font-specification:'Arial Unicode MS';letter-spacing:0px;word-spacing:0px;fill:#444444;fill-opacity:1;stroke:none;stroke-width:0.26458332px;stroke-linecap:butt;stroke-linejoin:miter;stroke-opacity:1"
       id="text4537">
      <path
         d="m 2.2979321,-1.4380884 h -0.47625 v -2.5505833 h 0.47625 z"
         style="font-style:normal;font-variant:normal;font-weight:bold;font-stretch:normal;font-size:3.52777767px;font-family:Lato;-inkscape-font-specification:'Lato Bold';fill:#444444;fill-opacity:1;stroke-width:0.26458332px"
         id="path826"
         inkscape:connector-curvature="0" />
      <path
         d="m 2.8481001,-1.4380884 v -1.80975 h 0.2663472 q 0.084667,0 0.111125,0.079375 l 0.028222,0.1340556 q 0.047625,-0.052917 0.098778,-0.097014 0.052917,-0.044097 0.111125,-0.075847 0.059972,-0.03175 0.127,-0.049389 0.068792,-0.019403 0.1499306,-0.019403 0.1710972,0 0.2804583,0.093486 0.111125,0.091722 0.1658056,0.2451806 0.042333,-0.089958 0.1058333,-0.1534584 0.0635,-0.065264 0.1393472,-0.1058333 0.075847,-0.040569 0.1605139,-0.059972 0.08643,-0.019403 0.1728611,-0.019403 0.1499305,0 0.2663472,0.045861 0.1164167,0.045861 0.1957917,0.1340556 0.079375,0.088194 0.1199444,0.2151944 0.042333,0.127 0.042333,0.2910417 v 1.1518194 H 4.9541834 v -1.1518194 q 0,-0.1728611 -0.075847,-0.2592917 -0.075847,-0.088194 -0.22225,-0.088194 -0.067028,0 -0.1252361,0.022931 -0.056445,0.022931 -0.1005417,0.067028 -0.042333,0.042333 -0.067028,0.1075972 -0.024694,0.065264 -0.024694,0.1499306 v 1.1518194 H 3.9011418 v -1.1518194 q 0,-0.1816806 -0.074083,-0.2645834 -0.072319,-0.082903 -0.2151944,-0.082903 -0.093486,0 -0.1763889,0.047625 -0.081139,0.045861 -0.1516944,0.127 v 1.3246805 z"
         style="font-style:normal;font-variant:normal;font-weight:bold;font-stretch:normal;font-size:3.52777767px;font-family:Lato;-inkscape-font-specification:'Lato Bold';fill:#444444;fill-opacity:1;stroke-width:0.26458332px"
         id="path828"
         inkscape:connector-curvature="0" />
      <path
         d="M 7.2359388,-1.4380884 H 7.0401472 q -0.061736,0 -0.097014,-0.017639 -0.035278,-0.019403 -0.052917,-0.075847 l -0.038805,-0.1287639 q -0.068792,0.061736 -0.1358195,0.1093611 -0.065264,0.045861 -0.1358194,0.077611 -0.070556,0.03175 -0.1499306,0.047625 -0.079375,0.015875 -0.1763888,0.015875 -0.1146528,0 -0.2116667,-0.029986 -0.097014,-0.03175 -0.1675694,-0.093486 -0.068792,-0.061736 -0.1075973,-0.1534583 -0.038805,-0.091722 -0.038805,-0.2134306 0,-0.1023055 0.052917,-0.2010833 0.054681,-0.1005417 0.1799167,-0.1799167 0.1252361,-0.081139 0.333375,-0.1340555 0.2081389,-0.052917 0.5168194,-0.059972 v -0.1058333 q 0,-0.1816805 -0.077611,-0.2681111 -0.075847,-0.088194 -0.22225,-0.088194 -0.1058333,0 -0.1763889,0.024694 -0.070556,0.024694 -0.1234722,0.056445 -0.051153,0.029986 -0.09525,0.05468 -0.044097,0.024695 -0.097014,0.024695 -0.044097,0 -0.075847,-0.022931 -0.03175,-0.022931 -0.051153,-0.056444 l -0.079375,-0.1393473 q 0.3122084,-0.28575 0.7531806,-0.28575 0.15875,0 0.2822222,0.052917 0.1252361,0.051153 0.2116667,0.1446389 0.086431,0.091722 0.1305277,0.2204861 0.045861,0.1287639 0.045861,0.2822222 z M 6.3892722,-1.7097273 q 0.067028,0 0.1234722,-0.012347 0.056445,-0.012347 0.1058333,-0.037042 0.051153,-0.024694 0.097014,-0.059972 0.047625,-0.037042 0.09525,-0.086431 V -2.210672 q -0.1905,0.00882 -0.3192639,0.033514 -0.127,0.02293 -0.2046111,0.059972 -0.077611,0.037042 -0.111125,0.086431 -0.03175,0.049389 -0.03175,0.1075973 0,0.1146527 0.067028,0.1640416 0.068792,0.049389 0.1781525,0.049389 z"
         style="font-style:normal;font-variant:normal;font-weight:bold;font-stretch:normal;font-size:3.52777767px;font-family:Lato;-inkscape-font-specification:'Lato Bold';fill:#444444;fill-opacity:1;stroke-width:0.26458332px"
         id="path830"
         inkscape:connector-curvature="0" />
      <path
         d="m 8.2905237,-3.2795884 q 0.1164167,0 0.2187222,0.024695 0.1023056,0.02293 0.1869722,0.068792 h 0.5203473 v 0.1622778 q 0,0.040569 -0.021167,0.0635 -0.021167,0.022931 -0.07232,0.03175 l -0.1622777,0.029986 q 0.017639,0.045861 0.026458,0.097014 0.010583,0.051153 0.010583,0.1075972 0,0.1340556 -0.05468,0.2434167 -0.052917,0.1075972 -0.1481667,0.1834444 -0.093486,0.075847 -0.2240139,0.1181806 -0.1287638,0.040569 -0.2804583,0.040569 -0.1023055,0 -0.1993194,-0.019403 -0.084667,0.051153 -0.084667,0.1146528 0,0.054681 0.049389,0.081139 0.051153,0.024695 0.1322917,0.035278 0.082903,0.010583 0.1869722,0.014111 0.1040694,0.00176 0.2134305,0.010583 0.1093611,0.00882 0.2134306,0.03175 0.1040694,0.021167 0.1852083,0.068792 0.082903,0.047625 0.1322917,0.1305278 0.051153,0.081139 0.051153,0.2099027 0,0.1199445 -0.059972,0.2328334 -0.058208,0.1128889 -0.1710972,0.20108329 -0.111125,0.0881944 -0.2734028,0.14111111 -0.1622777,0.0546805 -0.3704166,0.0546805 -0.206375,0 -0.3580695,-0.0405694 Q 7.7860509,-0.880699 7.6855092,-0.94772683 7.5867312,-1.0129907 7.5373426,-1.0994213 q -0.049389,-0.086431 -0.049389,-0.1799166 0,-0.127 0.077611,-0.2134306 0.077611,-0.086431 0.2151944,-0.1375833 -0.067028,-0.037042 -0.1075972,-0.098778 -0.040569,-0.061736 -0.040569,-0.1605139 0,-0.040569 0.014111,-0.082903 0.014111,-0.044097 0.042333,-0.086431 0.029986,-0.042333 0.074083,-0.079375 0.044097,-0.038805 0.1040694,-0.068792 -0.1375833,-0.074083 -0.2169583,-0.1975556 -0.077611,-0.1234722 -0.077611,-0.2892778 0,-0.1340555 0.052917,-0.2416527 0.054681,-0.1093611 0.1499306,-0.1852084 0.097014,-0.077611 0.2275416,-0.1181805 0.1322917,-0.04057 0.2875139,-0.04057 z m 0.4780139,1.9226389 q 0,-0.052917 -0.03175,-0.086431 -0.03175,-0.033514 -0.086431,-0.051153 -0.05468,-0.019403 -0.1287638,-0.028222 -0.072319,-0.00882 -0.1552223,-0.012347 -0.081139,-0.00529 -0.1693333,-0.00882 -0.086431,-0.00529 -0.1675694,-0.015875 -0.074083,0.040569 -0.1199445,0.097014 -0.044097,0.054681 -0.044097,0.127 0,0.047625 0.022931,0.088195 0.024694,0.042333 0.075847,0.072319 0.052917,0.029986 0.1358194,0.045861 0.082903,0.017639 0.2028472,0.017639 0.1217084,0 0.2099028,-0.019403 0.088195,-0.017639 0.1446389,-0.051153 0.058208,-0.03175 0.084667,-0.077611 0.026458,-0.044097 0.026458,-0.097014 z M 8.2905237,-2.3870606 q 0.081139,0 0.1411111,-0.021167 0.059972,-0.02293 0.098778,-0.061736 0.040569,-0.038806 0.059972,-0.093486 0.021167,-0.05468 0.021167,-0.1199444 0,-0.1340556 -0.081139,-0.2116667 -0.079375,-0.079375 -0.2398889,-0.079375 -0.1605139,0 -0.2416528,0.079375 -0.079375,0.077611 -0.079375,0.2116667 0,0.0635 0.019403,0.1181805 0.021167,0.054681 0.059972,0.09525 0.04057,0.038806 0.1005417,0.061736 0.061736,0.021167 0.1411109,0.021167 z"
         style="font-style:normal;font-variant:normal;font-weight:bold;font-stretch:normal;font-size:3.52777767px;font-family:Lato;-inkscape-font-specification:'Lato Bold';fill:#444444;fill-opacity:1;stroke-width:0.26458332px"
         id="path832"
         inkscape:connector-curvature="0" />
      <path
         d="m 10.238133,-3.2760606 q 0.171097,0 0.313972,0.054681 0.144639,0.05468 0.248709,0.1605139 0.104069,0.1040694 0.162277,0.2575277 0.05821,0.1516945 0.05821,0.3474861 0,0.049389 -0.0053,0.082903 -0.0035,0.03175 -0.01587,0.051153 -0.01058,0.017639 -0.02999,0.026458 -0.0194,0.00706 -0.04939,0.00706 H 9.8024525 q 0.019403,0.2786944 0.1499306,0.4092222 0.1305279,0.1305277 0.3457219,0.1305277 0.105834,0 0.181681,-0.024694 0.07761,-0.024694 0.134055,-0.05468 0.05821,-0.029986 0.100542,-0.054681 0.0441,-0.024694 0.08467,-0.024694 0.02646,0 0.04586,0.010583 0.0194,0.010583 0.03351,0.029986 l 0.127,0.15875 q -0.07232,0.084667 -0.162278,0.142875 -0.08996,0.056444 -0.188736,0.091722 -0.09701,0.033514 -0.19932,0.047625 -0.100541,0.014111 -0.195791,0.014111 -0.188736,0 -0.3510141,-0.061736 -0.1622778,-0.0635 -0.2822222,-0.1852083 -0.1199445,-0.1234722 -0.1887362,-0.3033889 -0.068792,-0.1816806 -0.068792,-0.4198055 0,-0.1852084 0.059972,-0.3474861 0.059972,-0.1640417 0.1710972,-0.2839861 0.1128889,-0.1217084 0.2734028,-0.1922639 0.1622775,-0.070556 0.3651245,-0.070556 z m 0.0088,0.3122083 q -0.1905,0 -0.2980977,0.1075973 -0.1075972,0.1075972 -0.1375833,0.3051527 h 0.818444 q 0,-0.084667 -0.02293,-0.15875 -0.02293,-0.075847 -0.07056,-0.1322916 -0.04763,-0.056445 -0.119944,-0.088195 -0.07232,-0.033514 -0.169333,-0.033514 z"
         style="font-style:normal;font-variant:normal;font-weight:bold;font-stretch:normal;font-size:3.52777767px;font-family:Lato;-inkscape-font-specification:'Lato Bold';fill:#444444;fill-opacity:1;stroke-width:0.26458332px"
         id="path834"
         inkscape:connector-curvature="0" />
    </g>
    <g
       aria-label="8"
       style="font-style:normal;font-variant:normal;font-weight:bold;font-stretch:normal;font-size:1.36161649px;line-height:125%;font-family:Lato;-inkscape-font-specification:'Lato Bold';letter-spacing:0px;word-spacing:0px;fill:#444444;fill-opacity:1;stroke:none;stroke-width:0.25530308px;stroke-linecap:butt;stroke-linejoin:miter;stroke-opacity:1"
       id="text4541">
      <path
         d="m 4.2384592,2.9560701 q -0.1906263,0 -0.3489142,-0.051061 Q 3.7329591,2.8539489 3.6206257,2.7603377 3.5082923,2.6667266 3.4453176,2.533969 3.3840448,2.4012114 3.3840448,2.2378174 q 0,-0.2178586 0.1072273,-0.3676365 Q 3.5984994,1.7187011 3.8248682,1.6455142 3.644454,1.5706253 3.5542469,1.4327616 3.4657418,1.294898 3.4657418,1.1008676 q 0,-0.13956569 0.056167,-0.26040916 0.057869,-0.12084346 0.1599899,-0.20934853 0.1021213,-0.0902071 0.243389,-0.1395657 0.1429697,-0.0510606 0.3131718,-0.0510606 0.1702021,0 0.3114698,0.0510606 0.1429697,0.0493586 0.2450909,0.1395657 0.1021213,0.0885051 0.158288,0.20934853 0.057869,0.12084347 0.057869,0.26040916 0,0.1940304 -0.090207,0.331894 -0.090207,0.1378637 -0.2689193,0.2127526 0.2263688,0.073187 0.3335961,0.2246667 0.1072273,0.1497779 0.1072273,0.3676365 0,0.163394 -0.062975,0.2961516 Q 4.9686263,2.6667266 4.8562932,2.7603377 4.7439598,2.8539487 4.5856719,2.9050095 4.429086,2.9560705 4.2384592,2.9560701 Z m 0,-0.32849 q 0.1038233,0 0.1821162,-0.028934 Q 4.4988684,2.5680101 4.551631,2.5152471 4.606096,2.4624841 4.633328,2.3892975 4.66056,2.3161105 4.66056,2.2310096 4.66056,2.0284692 4.5482267,1.9246459 4.4358933,1.8208226 4.2384589,1.8208226 q -0.1974344,0 -0.3097678,0.1038233 -0.1123333,0.1038233 -0.1123333,0.3063637 0,0.085101 0.027232,0.1582879 0.027232,0.073187 0.079995,0.1259496 0.054465,0.052763 0.1327576,0.083399 0.078293,0.028934 0.1821168,0.028934 z m 0,-1.1369498 q 0.1021212,0 0.1719041,-0.032338 0.069783,-0.032338 0.1123333,-0.085101 0.042551,-0.054465 0.059571,-0.1225455 0.018722,-0.069783 0.018722,-0.1429697 0,-0.069783 -0.022126,-0.13275762 -0.022126,-0.0629748 -0.066379,-0.11063135 -0.044252,-0.0493586 -0.1123333,-0.078293 -0.068081,-0.0289344 -0.161692,-0.0289344 -0.093611,0 -0.161692,0.0289344 -0.068081,0.0289344 -0.1140353,0.078293 -0.044253,0.0476566 -0.066379,0.11063135 -0.020424,0.0629747 -0.020424,0.13275762 0,0.073187 0.01702,0.1429697 0.018722,0.068081 0.061273,0.1225455 0.042551,0.052763 0.1123334,0.085101 0.069783,0.032338 0.1719038,0.032338 z"
         style="font-style:normal;font-variant:normal;font-weight:bold;font-stretch:normal;font-size:3.40404129px;font-family:Lato;-inkscape-font-specification:'Lato Bold';fill:#444444;fill-opacity:1;stroke-width:0.25530308px"
         id="path4543"
         inkscape:connector-curvature="0" />
    </g>
    <path
       style="display:inline;fill:none;fill-rule:evenodd;stroke:#444444;stroke-width:0.36444527;stroke-linecap:butt;stroke-linejoin:miter;stroke-miterlimit:4;stroke-dasharray:none;stroke-opacity:1"
       d="M 8.4666667,2.9457097 V 1.0583332 L 7.6418796,2.388571 h 1.348126"
       id="path872-8"
       inkscape:connector-curvature="0"
       sodipodi:nodetypes="cccc" />
    <g
       transform="translate(5.8208333)"
       aria-label="8"
       style="font-style:normal;font-variant:normal;font-weight:bold;font-stretch:normal;font-size:1.36161649px;line-height:125%;font-family:Lato;-inkscape-font-specification:'Lato Bold';letter-spacing:0px;word-spacing:0px;display:inline;fill:#444444;fill-opacity:1;stroke:none;stroke-width:0.25530308px;stroke-linecap:butt;stroke-linejoin:miter;stroke-opacity:1"
       id="text4541-2">
      <path
         d="m 4.2384592,2.9560701 q -0.1906263,0 -0.3489142,-0.051061 Q 3.7329591,2.8539489 3.6206257,2.7603377 3.5082923,2.6667266 3.4453176,2.533969 3.3840448,2.4012114 3.3840448,2.2378174 q 0,-0.2178586 0.1072273,-0.3676365 Q 3.5984994,1.7187011 3.8248682,1.6455142 3.644454,1.5706253 3.5542469,1.4327616 3.4657418,1.294898 3.4657418,1.1008676 q 0,-0.13956569 0.056167,-0.26040916 0.057869,-0.12084346 0.1599899,-0.20934853 0.1021213,-0.0902071 0.243389,-0.1395657 0.1429697,-0.0510606 0.3131718,-0.0510606 0.1702021,0 0.3114698,0.0510606 0.1429697,0.0493586 0.2450909,0.1395657 0.1021213,0.0885051 0.158288,0.20934853 0.057869,0.12084347 0.057869,0.26040916 0,0.1940304 -0.090207,0.331894 -0.090207,0.1378637 -0.2689193,0.2127526 0.2263688,0.073187 0.3335961,0.2246667 0.1072273,0.1497779 0.1072273,0.3676365 0,0.163394 -0.062975,0.2961516 Q 4.9686263,2.6667266 4.8562932,2.7603377 4.7439598,2.8539487 4.5856719,2.9050095 4.429086,2.9560705 4.2384592,2.9560701 Z m 0,-0.32849 q 0.1038233,0 0.1821162,-0.028934 Q 4.4988684,2.5680101 4.551631,2.5152471 4.606096,2.4624841 4.633328,2.3892975 4.66056,2.3161105 4.66056,2.2310096 4.66056,2.0284692 4.5482267,1.9246459 4.4358933,1.8208226 4.2384589,1.8208226 q -0.1974344,0 -0.3097678,0.1038233 -0.1123333,0.1038233 -0.1123333,0.3063637 0,0.085101 0.027232,0.1582879 0.027232,0.073187 0.079995,0.1259496 0.054465,0.052763 0.1327576,0.083399 0.078293,0.028934 0.1821168,0.028934 z m 0,-1.1369498 q 0.1021212,0 0.1719041,-0.032338 0.069783,-0.032338 0.1123333,-0.085101 0.042551,-0.054465 0.059571,-0.1225455 0.018722,-0.069783 0.018722,-0.1429697 0,-0.069783 -0.022126,-0.13275762 -0.022126,-0.0629748 -0.066379,-0.11063135 -0.044252,-0.0493586 -0.1123333,-0.078293 -0.068081,-0.0289344 -0.161692,-0.0289344 -0.093611,0 -0.161692,0.0289344 -0.068081,0.0289344 -0.1140353,0.078293 -0.044253,0.0476566 -0.066379,0.11063135 -0.020424,0.0629747 -0.020424,0.13275762 0,0.073187 0.01702,0.1429697 0.018722,0.068081 0.061273,0.1225455 0.042551,0.052763 0.1123334,0.085101 0.069783,0.032338 0.1719038,0.032338 z"
         style="font-style:normal;font-variant:normal;font-weight:bold;font-stretch:normal;font-size:3.40404129px;font-family:Lato;-inkscape-font-specification:'Lato Bold';fill:#444444;fill-opacity:1;stroke-width:0.25530308px"
         id="path4543-7"
         inkscape:connector-curvature="0" />
    </g>
  </g>
</svg>
