<?xml version="1.0" encoding="UTF-8" standalone="no"?>
<!-- Created with Inkscape (http://www.inkscape.org/) -->

<svg
   xmlns:dc="http://purl.org/dc/elements/1.1/"
   xmlns:cc="http://creativecommons.org/ns#"
   xmlns:rdf="http://www.w3.org/1999/02/22-rdf-syntax-ns#"
   xmlns:svg="http://www.w3.org/2000/svg"
   xmlns="http://www.w3.org/2000/svg"
   xmlns:sodipodi="http://sodipodi.sourceforge.net/DTD/sodipodi-0.dtd"
   xmlns:inkscape="http://www.inkscape.org/namespaces/inkscape"
   width="24"
   height="24"
   viewBox="0 0 6.35 6.35"
   version="1.1"
   id="svg8"
   inkscape:version="0.92.1 r15371"
   sodipodi:docname="openconstellationproject.svg"
   inkscape:export-filename="C:\diskH\Graphisme\Works\Modelio\Flat icons\modelio.app\app.project.ui\icons\openconstellationproject.png"
   inkscape:export-xdpi="96"
   inkscape:export-ydpi="96">
  <defs
     id="defs2" />
  <sodipodi:namedview
     id="base"
     pagecolor="#ffffff"
     bordercolor="#666666"
     borderopacity="1.0"
     inkscape:pageopacity="0.0"
     inkscape:pageshadow="2"
     inkscape:zoom="35.416667"
     inkscape:cx="12"
     inkscape:cy="12"
     inkscape:document-units="px"
     inkscape:current-layer="layer1"
     showgrid="true"
     units="px"
     inkscape:window-width="1280"
     inkscape:window-height="961"
     inkscape:window-x="-8"
     inkscape:window-y="-8"
     inkscape:window-maximized="1">
    <inkscape:grid
       type="xygrid"
       id="grid4485" />
  </sodipodi:namedview>
  <metadata
     id="metadata5">
    <rdf:RDF>
      <cc:Work
         rdf:about="">
        <dc:format>image/svg+xml</dc:format>
        <dc:type
           rdf:resource="http://purl.org/dc/dcmitype/StillImage" />
        <dc:title></dc:title>
      </cc:Work>
    </rdf:RDF>
  </metadata>
  <g
     inkscape:groupmode="layer"
     id="layer3"
     inkscape:label="nuage"
     transform="translate(0,-6.35)">
    <g
       transform="matrix(0.21516505,0,0,0.21516505,-0.40415349,4.9225569)"
       style="fill:#bcdffa;fill-opacity:1;fill-rule:evenodd;stroke:none;stroke-width:1;stroke-opacity:1"
       id="Page-1">
      <g
         style="fill:#bcdffa;fill-opacity:1;stroke:none;stroke-opacity:1"
         id="icon-132-cloud">
        <path
           inkscape:connector-curvature="0"
           d="M 26.882863,15.36551 C 28.713291,16.108508 30,17.903581 30,20 c 0,2.755805 -2.238325,5 -4.99944,5 H 7.9994399 C 5.2324942,25 3,22.761424 3,20 3,17.949131 4.2396588,16.181608 6.0118966,15.411539 v 0 C 6.0040021,15.275367 6,15.138151 6,15 6,11.134007 9.1340066,8 13,8 15.612757,8 17.891182,9.4314488 19.093808,11.552882 19.820616,11.198716 20.637102,11 21.5,11 c 2.648655,0 4.860022,1.872249 5.382863,4.36551 z"
           id="cloud"
           style="fill:#bcdffa;fill-opacity:1;stroke:none;stroke-opacity:1" />
      </g>
    </g>
  </g>
  <g
     inkscape:groupmode="layer"
     id="layer1"
     inkscape:label="project">
    <path
       style="display:inline;fill:#fda12c;fill-opacity:1;fill-rule:evenodd;stroke:none;stroke-width:0.09373615px;stroke-linecap:butt;stroke-linejoin:miter;stroke-opacity:1"
       d="M 1.8520833,2.1166667 C 1.5875,2.1166667 1.5875,2.38125 1.5875,2.38125 c -0.0033,0.1853099 0,0.3051308 0,0.5291667 H 0.79374997 V 3.4395834 H 1.3229166 v 2.38125 h 3.175 v -2.38125 H 5.0270833 V 2.9104167 h -1.5875 L 3.4531068,2.401693 C 3.4606837,2.1166667 2.9768632,2.1166667 2.9768632,2.1166667 Z"
       id="path4499"
       inkscape:connector-curvature="0"
       sodipodi:nodetypes="scccccccccccscs" />
    <path
       style="display:inline;fill:#2b98f0;fill-opacity:1;fill-rule:evenodd;stroke:none;stroke-width:0.07987899px;stroke-linecap:butt;stroke-linejoin:miter;stroke-opacity:1"
       d="M 1.5199077,4.0306577 H 5.8317699 L 5.7313042,4.3029368 H 5.3563585 L 4.4979166,5.8208334 h -3.175 L 1.7943854,4.3029368 H 1.419442 Z"
       id="path4499-1"
       inkscape:connector-curvature="0"
       sodipodi:nodetypes="ccccccccc" />
  </g>
</svg>
