<?xml version="1.0" encoding="UTF-8" standalone="no"?>
<!-- Created with Inkscape (http://www.inkscape.org/) -->

<svg
   xmlns:dc="http://purl.org/dc/elements/1.1/"
   xmlns:cc="http://creativecommons.org/ns#"
   xmlns:rdf="http://www.w3.org/1999/02/22-rdf-syntax-ns#"
   xmlns:svg="http://www.w3.org/2000/svg"
   xmlns="http://www.w3.org/2000/svg"
   xmlns:sodipodi="http://sodipodi.sourceforge.net/DTD/sodipodi-0.dtd"
   xmlns:inkscape="http://www.inkscape.org/namespaces/inkscape"
   width="24"
   height="24"
   viewBox="0 0 6.35 6.35"
   version="1.1"
   id="svg8"
   inkscape:version="0.92.3 (2405546, 2018-03-11)"
   sodipodi:docname="refresh.svg"
   inkscape:export-filename="C:\diskH\Graphisme\Works\Modelio\Flat icons\modelio.app\app.project.ui\icons\refresh.png"
   inkscape:export-xdpi="96"
   inkscape:export-ydpi="96">
  <defs
     id="defs2" />
  <sodipodi:namedview
     id="base"
     pagecolor="#ffffff"
     bordercolor="#666666"
     borderopacity="1.0"
     inkscape:pageopacity="0.0"
     inkscape:pageshadow="2"
     inkscape:zoom="35.416667"
     inkscape:cx="11.319175"
     inkscape:cy="12"
     inkscape:document-units="px"
     inkscape:current-layer="layer5"
     showgrid="true"
     units="px"
     inkscape:window-width="1280"
     inkscape:window-height="961"
     inkscape:window-x="-8"
     inkscape:window-y="-8"
     inkscape:window-maximized="1">
    <inkscape:grid
       type="xygrid"
       id="grid4485" />
  </sodipodi:namedview>
  <metadata
     id="metadata5">
    <rdf:RDF>
      <cc:Work
         rdf:about="">
        <dc:format>image/svg+xml</dc:format>
        <dc:type
           rdf:resource="http://purl.org/dc/dcmitype/StillImage" />
        <dc:title />
      </cc:Work>
    </rdf:RDF>
  </metadata>
  <g
     inkscape:groupmode="layer"
     id="layer5"
     inkscape:label="refresh"
     transform="translate(0,-6.35)">
    <g
       transform="matrix(0.19987325,0,0,0.19987325,0.32705044,6.6154895)"
       id="g7237">
      <path
         inkscape:connector-curvature="0"
         d="m 7.63,7.938 c 3.215,-3.215 8.132,-3.674 11.847,-1.402 -1.259,1.246 -2.711,2.702 -2.711,2.702 -1.016,1.219 0.125,1.922 0.705,1.904 L 24.26,11.14 c 0.358,0 0.651,0.002 0.651,0.002 0,0 0.296,0 0.655,0 h 1.317 c 0.359,0 0.651,-0.293 0.652,-0.653 V 1.154 C 27.577,0.3 26.639,-0.528 25.671,0.425 c 0,0 -1.602,1.561 -2.708,2.657 C 17.305,-1.051 9.331,-0.583 4.22,4.528 1.238,7.51 -0.153,11.466 0.014,15.373 h 4.83 C 4.673,12.703 5.589,9.979 7.63,7.938 Z"
         id="path7233"
         style="fill:#324a5e;fill-opacity:1" />
      <path
         inkscape:connector-curvature="0"
         d="m 23.695,13.75 c 0.171,2.67 -0.745,5.394 -2.786,7.435 -3.216,3.215 -8.131,3.674 -11.846,1.402 1.258,-1.246 2.71,-2.702 2.71,-2.702 1.016,-1.219 -0.125,-1.922 -0.705,-1.903 l -6.789,0.002 c -0.358,0 -0.651,-0.002 -0.651,-0.002 0,0 -0.296,0 -0.655,0 H 1.654 c -0.359,0 -0.651,0.293 -0.652,0.652 v 9.335 c -0.041,0.853 0.896,1.681 1.865,0.728 0,0 1.601,-1.561 2.708,-2.656 5.66,4.134 13.633,3.666 18.743,-1.445 2.981,-2.982 4.373,-6.938 4.207,-10.845 h -4.83 z"
         id="path7235"
         style="fill:#324a5e;fill-opacity:1" />
    </g>
  </g>
</svg>
