<?xml version="1.0" encoding="UTF-8" standalone="no"?>
<!-- Created with Inkscape (http://www.inkscape.org/) -->

<svg
   xmlns:dc="http://purl.org/dc/elements/1.1/"
   xmlns:cc="http://creativecommons.org/ns#"
   xmlns:rdf="http://www.w3.org/1999/02/22-rdf-syntax-ns#"
   xmlns:svg="http://www.w3.org/2000/svg"
   xmlns="http://www.w3.org/2000/svg"
   xmlns:sodipodi="http://sodipodi.sourceforge.net/DTD/sodipodi-0.dtd"
   xmlns:inkscape="http://www.inkscape.org/namespaces/inkscape"
   width="24"
   height="24"
   viewBox="0 0 6.35 6.35"
   version="1.1"
   id="svg8"
   inkscape:version="0.92.3 (2405546, 2018-03-11)"
   sodipodi:docname="wsmode.svg"
   inkscape:export-filename="C:\diskH\Graphisme\Works\Modelio\Flat icons\modelio.app\app.project.ui\icons\wsmode.png"
   inkscape:export-xdpi="96"
   inkscape:export-ydpi="96">
  <defs
     id="defs2" />
  <sodipodi:namedview
     id="base"
     pagecolor="#ffffff"
     bordercolor="#666666"
     borderopacity="1.0"
     inkscape:pageopacity="0.0"
     inkscape:pageshadow="2"
     inkscape:zoom="35.416667"
     inkscape:cx="7.2847059"
     inkscape:cy="10.870588"
     inkscape:document-units="px"
     inkscape:current-layer="layer2"
     showgrid="true"
     units="px"
     inkscape:window-width="1280"
     inkscape:window-height="961"
     inkscape:window-x="-8"
     inkscape:window-y="-8"
     inkscape:window-maximized="1">
    <inkscape:grid
       type="xygrid"
       id="grid4485" />
  </sodipodi:namedview>
  <metadata
     id="metadata5">
    <rdf:RDF>
      <cc:Work
         rdf:about="">
        <dc:format>image/svg+xml</dc:format>
        <dc:type
           rdf:resource="http://purl.org/dc/dcmitype/StillImage" />
        <dc:title />
      </cc:Work>
    </rdf:RDF>
  </metadata>
  <g
     inkscape:groupmode="layer"
     id="layer2"
     inkscape:label="Project"
     transform="translate(0,-6.35)">
    <path
       style="display:inline;fill:#39559c;fill-opacity:1;fill-rule:evenodd;stroke:none;stroke-width:0.09125827px;stroke-linecap:butt;stroke-linejoin:miter;stroke-opacity:1"
       d="M 3.7041667,10.583333 H 0.26458333 l -0.0282356,1.852084 H 3.7041667 Z"
       id="path4537"
       inkscape:connector-curvature="0"
       sodipodi:nodetypes="ccccc" />
    <path
       style="display:inline;fill:#39559c;fill-opacity:1;fill-rule:evenodd;stroke:none;stroke-width:0.09125827px;stroke-linecap:butt;stroke-linejoin:miter;stroke-opacity:1"
       d="m 0.57983959,9.164678 c -0.31525626,0 -0.31525626,0.3152562 -0.31525626,0.3152562 -0.005577,0.2727255 1.0324e-4,0.5660428 0,0.8388158 H 3.7041667 V 9.7895833 L 2.3137494,9.7951903 2.082664,9.5168937 C 1.8736659,9.2651946 1.840865,9.164678 1.5256083,9.164678 c -0.3954523,-1.826e-4 -0.55031635,-1.25e-4 -0.94576871,0 z"
       id="path4500"
       inkscape:connector-curvature="0"
       sodipodi:nodetypes="ccccccscc" />
  </g>
  <g
     inkscape:groupmode="layer"
     id="layer1"
     inkscape:label="eye">
    <path
       inkscape:connector-curvature="0"
       d="m 1.8520865,2.1166667 c 0,0 1.0583333,-2.1166667 2.9104167,-2.1166667 1.8520833,0 2.9104166,2.1166667 2.9104166,2.1166667 0,0 -1.0583333,2.1166666 -2.9104166,2.1166666 -1.8520834,0 -2.9104167,-2.1166666 -2.9104167,-2.1166666 z"
       id="path2"
       style="stroke-width:0.26458332;fill:none" />
    <path
       inkscape:connector-curvature="0"
       d="m 3.1750062,1.8520833 c 0,0 0.4810595,-0.96211891 1.3229136,-0.96211891 0.841854,0 1.3229135,0.96211891 1.3229135,0.96211891 0,0 -0.4810595,0.9621189 -1.3229135,0.9621189 -0.8418541,0 -1.3229136,-0.9621189 -1.3229136,-0.9621189 z"
       id="path2-8"
       style="fill:#bcdffa;fill-opacity:1;stroke:#000000;stroke-width:0.12026486;stroke-opacity:1" />
    <circle
       cx="4.4979196"
       cy="1.8520833"
       r="0.3607946"
       id="circle4"
       style="fill:#bcdffa;fill-opacity:1;stroke:#000000;stroke-width:0.12026486;stroke-miterlimit:4;stroke-dasharray:none;stroke-opacity:1" />
  </g>
</svg>
