<?xml version="1.0" encoding="UTF-8" standalone="no"?>
<!-- Created with Inkscape (http://www.inkscape.org/) -->

<svg
   xmlns:dc="http://purl.org/dc/elements/1.1/"
   xmlns:cc="http://creativecommons.org/ns#"
   xmlns:rdf="http://www.w3.org/1999/02/22-rdf-syntax-ns#"
   xmlns:svg="http://www.w3.org/2000/svg"
   xmlns="http://www.w3.org/2000/svg"
   xmlns:sodipodi="http://sodipodi.sourceforge.net/DTD/sodipodi-0.dtd"
   xmlns:inkscape="http://www.inkscape.org/namespaces/inkscape"
   width="24"
   height="24"
   viewBox="0 0 6.35 6.35"
   version="1.1"
   id="svg8"
   inkscape:version="0.92.1 r15371"
   sodipodi:docname="module.svg"
   inkscape:export-filename="C:\diskH\TK\valkyrie\work\eclipse\modelio.app\app.modules\icons\module.png"
   inkscape:export-xdpi="96"
   inkscape:export-ydpi="96">
  <defs
     id="defs2">
    <linearGradient
       id="linearGradient3986">
      <stop
         style="stop-color:#949494;stop-opacity:1;"
         offset="0"
         id="stop3996" />
      <stop
         style="stop-color:#d5d5d5;stop-opacity:1;"
         offset="1"
         id="stop3990" />
    </linearGradient>
    <linearGradient
       id="linearGradient4051">
      <stop
         style="stop-color:#da1c1c;stop-opacity:1;"
         offset="0"
         id="stop4053" />
      <stop
         style="stop-color:#91110e;stop-opacity:1;"
         offset="1"
         id="stop4055" />
    </linearGradient>
  </defs>
  <sodipodi:namedview
     id="base"
     pagecolor="#ffffff"
     bordercolor="#666666"
     borderopacity="1.0"
     inkscape:pageopacity="0.0"
     inkscape:pageshadow="2"
     inkscape:zoom="32.958333"
     inkscape:cx="12"
     inkscape:cy="12"
     inkscape:document-units="px"
     inkscape:current-layer="layer10"
     showgrid="true"
     units="px"
     inkscape:window-width="1280"
     inkscape:window-height="961"
     inkscape:window-x="-8"
     inkscape:window-y="-8"
     inkscape:window-maximized="1"
     showguides="true">
    <inkscape:grid
       type="xygrid"
       id="grid4485" />
  </sodipodi:namedview>
  <metadata
     id="metadata5">
    <rdf:RDF>
      <cc:Work
         rdf:about="">
        <dc:format>image/svg+xml</dc:format>
        <dc:type
           rdf:resource="http://purl.org/dc/dcmitype/StillImage" />
        <dc:title></dc:title>
      </cc:Work>
    </rdf:RDF>
  </metadata>
  <g
     inkscape:groupmode="layer"
     id="layer10"
     inkscape:label="module"
     style="display:inline"
     transform="translate(0,-6.35)">
    <path
       style="fill:#9b1b1b;fill-opacity:1;fill-rule:evenodd;stroke:none;stroke-width:0.13478386px;stroke-linecap:butt;stroke-linejoin:miter;stroke-opacity:1"
       d="m 3.8213998,6.7820717 c -0.5817476,0 -1.0533211,0.3054402 -1.0532243,0.6821791 3.949e-4,0.2676238 0.2943666,0.5023794 0.5709893,0.5967564 0.00485,0.022671 0.054364,0.072922 0.054364,0.1103645 0,0.046927 -0.050272,0.093505 -0.1141674,0.134739 H 1.7761488 V 9.924773 c -0.035008,0.05025 -0.073774,0.08846 -0.1126255,0.08846 -0.065641,0 -0.09671,-0.0032 -0.1295956,-0.04012 C 1.5008542,9.8914818 1.4585339,9.8170749 1.4084458,9.7524943 1.3741228,9.6913152 1.3243034,9.6468727 1.2693362,9.6136416 1.1668891,9.5363364 1.0511029,9.4955855 0.93326038,9.4953592 0.55646282,9.4952767 0.25099808,9.9007956 0.25108222,10.400984 c 2.288e-5,0.500092 0.30545627,0.905454 0.68217816,0.90537 0.26724652,-4.13e-4 0.50968862,-0.207971 0.62020982,-0.530981 0.026983,-0.01955 0.057044,-0.02085 0.1100529,-0.02085 0.038869,0 0.077597,0.03844 0.1126255,0.08874 v 1.506287 h 1.212906 c 0,0 0.2694768,-0.101015 0.2694768,-0.202106 0,-0.03218 -5.848e-4,-0.0538 -0.0064,-0.072 -0.233752,-0.08564 -0.3837821,-0.272332 -0.3841588,-0.478009 0,-0.290842 0.2947156,-0.526618 0.6582656,-0.526618 0.3635501,0 0.6582655,0.235776 0.6582655,0.526618 -3.432e-4,0.204315 -0.1483729,0.390033 -0.3797881,0.476466 -0.00631,0.01856 -0.00697,0.04042 -0.00697,0.07359 0,0.101082 0.2697343,0.202111 0.2697343,0.202111 H 5.684849 c -5.78e-5,-0.0013 0.2914105,-1.135548 0.3317062,-1.319355 0.025755,-0.211781 0.017827,-0.334272 -0.00637,-0.345591 -0.030591,-0.01432 -0.077018,-0.0052 -0.085632,0.0095 -0.034832,0.05821 -0.099252,0.203394 -0.1321638,0.269224 -0.044716,0.103928 -0.172847,0.165571 -0.2998234,0.200563 -0.060854,0.02533 -0.1246864,0.03848 -0.1889921,0.03876 -0.012863,-2.68e-4 -0.025738,-0.0017 -0.03858,-0.0025 -0.00788,3.03e-4 -0.020404,0.0025 -0.027268,0.0025 -0.032195,0.0011 -0.077899,-0.01219 -0.1280674,-0.04062 C 4.8713064,11.060907 4.7113594,10.78663 4.7110964,10.478336 4.7112677,10.173621 4.8675073,9.9016476 5.1019415,9.7979613 c 0.052515,-0.029055 0.101206,-0.043712 0.135766,-0.043712 0.01351,2.895e-4 0.027674,8.397e-4 0.041385,0.00111 0.00812,-5.498e-4 0.016294,-9.496e-4 0.024438,-0.00111 0.038159,5.87e-5 0.076209,0.00467 0.1136533,0.013624 0.083662,0.01516 0.1741271,0.050509 0.2789902,0.1470799 0.2240362,0.2015918 0.1233773,0.2779608 0.2581617,0.2779608 0.038876,0 0.077236,-0.03516 0.1128834,-0.08306 C 6.0890381,9.7887464 5.8195897,8.3061099 5.8195897,8.3061099 h -1.503462 c -0.063891,-0.041235 -0.113911,-0.087816 -0.113911,-0.1347378 0,-0.030449 0.044444,-0.084397 0.047542,-0.1042111 C 4.6530997,7.9647593 4.8745314,7.7448113 4.8746243,7.4642508 4.8747202,7.0875119 4.4031476,6.7820717 3.8213998,6.7820717 Z"
       id="path5327"
       inkscape:connector-curvature="0"
       sodipodi:nodetypes="sccccccscccccccscccsccsccsccccccccccccccccccscccsccs" />
  </g>
</svg>
