<?xml version="1.0" encoding="UTF-8" standalone="no"?>
<!-- Created with Inkscape (http://www.inkscape.org/) -->

<svg
   xmlns:dc="http://purl.org/dc/elements/1.1/"
   xmlns:cc="http://creativecommons.org/ns#"
   xmlns:rdf="http://www.w3.org/1999/02/22-rdf-syntax-ns#"
   xmlns:svg="http://www.w3.org/2000/svg"
   xmlns="http://www.w3.org/2000/svg"
   xmlns:sodipodi="http://sodipodi.sourceforge.net/DTD/sodipodi-0.dtd"
   xmlns:inkscape="http://www.inkscape.org/namespaces/inkscape"
   width="24"
   height="24"
   viewBox="0 0 6.35 6.35"
   version="1.1"
   id="svg8"
   inkscape:version="0.92.1 r15371"
   sodipodi:docname="httpfragment.svg"
   inkscape:export-filename="C:\diskH\Graphisme\Works\Modelio\Flat icons\modelio.app\app.project.ui\icons\httpfragment.png"
   inkscape:export-xdpi="96"
   inkscape:export-ydpi="96">
  <defs
     id="defs2" />
  <sodipodi:namedview
     id="base"
     pagecolor="#ffffff"
     bordercolor="#666666"
     borderopacity="1.0"
     inkscape:pageopacity="0.0"
     inkscape:pageshadow="2"
     inkscape:zoom="32.958333"
     inkscape:cx="6.9329962"
     inkscape:cy="12"
     inkscape:document-units="px"
     inkscape:current-layer="layer1"
     showgrid="true"
     units="px"
     inkscape:window-width="1280"
     inkscape:window-height="961"
     inkscape:window-x="-8"
     inkscape:window-y="-8"
     inkscape:window-maximized="1"
     gridtolerance="1"
     guidetolerance="1">
    <inkscape:grid
       type="xygrid"
       id="grid4485" />
  </sodipodi:namedview>
  <metadata
     id="metadata5">
    <rdf:RDF>
      <cc:Work
         rdf:about="">
        <dc:format>image/svg+xml</dc:format>
        <dc:type
           rdf:resource="http://purl.org/dc/dcmitype/StillImage" />
        <dc:title />
      </cc:Work>
    </rdf:RDF>
  </metadata>
  <g
     inkscape:groupmode="layer"
     id="layer4"
     inkscape:label="file"
     transform="translate(0,-6.35)"
     style="display:inline">
    <rect
       style="display:inline;fill:#ddeaf7;fill-opacity:1;stroke:#1469ab;stroke-width:0.25969732;stroke-linecap:round;stroke-linejoin:miter;stroke-miterlimit:4;stroke-dasharray:none;stroke-dashoffset:0;stroke-opacity:1"
       id="rect5130"
       width="4.7603798"
       height="5.283381"
       x="1.186439"
       y="6.7501149" />
  </g>
  <g
     style="display:inline"
     inkscape:label="Project copy"
     id="g4504"
     inkscape:groupmode="layer"
     transform="translate(0,-6.35)">
    <g
       id="g5152"
       transform="matrix(0.24274729,0,0,0.23250515,2.2885891,8.9779208)">
      <path
         sodipodi:nodetypes="ccc"
         inkscape:connector-curvature="0"
         id="path4555"
         d="M 1.3229167,4.2333333 V 9.525 h 2.9104166"
         style="fill:none;fill-rule:evenodd;stroke:#1469ab;stroke-width:0.5291667;stroke-linecap:butt;stroke-linejoin:miter;stroke-miterlimit:4;stroke-dasharray:none;stroke-opacity:1" />
      <path
         sodipodi:nodetypes="cscccccszsc"
         inkscape:connector-curvature="0"
         id="path4500"
         d="M 0.417407,0.29295522 C 0.28201082,0.28869418 0.16391194,0.45988089 0.15581515,0.764709 c -0.0092,0.3463777 -0.0092,0.930314 -0.0092,0.930314 V 4.4979167 H 5.2916667 V 1.227874 H 3.1253291 L 2.8545369,0.76072504 C 2.6123329,0.34289433 2.5837448,0.29357611 2.1775563,0.29357611 c 0,0 -1.35771784,-6.2248e-4 -1.62869015,-6.2133e-4 z"
         style="fill:#fda12c;fill-opacity:1;fill-rule:evenodd;stroke:none;stroke-width:0.1257479px;stroke-linecap:butt;stroke-linejoin:miter;stroke-opacity:1" />
      <path
         sodipodi:nodetypes="cscccccszsc"
         inkscape:connector-curvature="0"
         id="path4500-8"
         d="M 4.2333334,7.14375 C 4.0979373,7.13949 3.9798384,7.3106757 3.9717416,7.6155038 c -0.0092,0.3463777 -0.0092,0.930314 -0.0092,0.930314 V 11.348712 H 9.1075931 V 8.0786688 H 6.9412557 L 6.6704634,7.6115199 C 6.4282594,7.1936891 6.3996713,7.1443709 5.9934828,7.1443709 c 0,0 -1.3577179,-6.225e-4 -1.6286902,-6.213e-4 z"
         style="display:inline;fill:#fda12c;fill-opacity:1;fill-rule:evenodd;stroke:none;stroke-width:0.1257479px;stroke-linecap:butt;stroke-linejoin:miter;stroke-opacity:1" />
      <path
         inkscape:connector-curvature="0"
         id="path4557"
         d="M 6.0854166,3.4395833 H 10.583333"
         style="fill:none;fill-rule:evenodd;stroke:#1469ab;stroke-width:0.5291667;stroke-linecap:butt;stroke-linejoin:miter;stroke-miterlimit:4;stroke-dasharray:none;stroke-opacity:1" />
      <path
         inkscape:connector-curvature="0"
         id="path4557-5"
         d="M 9.7895833,10.31875 H 12.435417"
         style="display:inline;fill:none;fill-rule:evenodd;stroke:#1469ab;stroke-width:0.5291667;stroke-linecap:butt;stroke-linejoin:miter;stroke-miterlimit:4;stroke-dasharray:none;stroke-opacity:1" />
    </g>
  </g>
  <g
     inkscape:groupmode="layer"
     id="layer5"
     inkscape:label="Project copy 1"
     transform="translate(0,-6.35)">
    <path
       style="fill:#2b98f0;fill-opacity:1;fill-rule:evenodd;stroke:none;stroke-width:0.04547058px;stroke-linecap:butt;stroke-linejoin:miter;stroke-opacity:1"
       d="M 1.68583,7.5703 H 3.8230505 V 7.7483044 H 3.6372054 V 8.8163279 H 1.8716753 V 7.7483044 H 1.68583 Z"
       id="path4499"
       inkscape:connector-curvature="0" />
    <path
       style="fill:#fda12c;fill-opacity:1;fill-rule:evenodd;stroke:none;stroke-width:0.04547058px;stroke-linecap:butt;stroke-linejoin:miter;stroke-opacity:1"
       d="M 2.0575204,7.5703 V 7.392296 c 0,0 0,-0.1780038 0.1858455,-0.1780038 0.1858455,0 0.5575353,0 0.5575353,0 0,0 0.1858458,0 0.1858458,0.1780038 0,0.178004 0,0.178004 0,0.178004 z"
       id="path4501"
       inkscape:connector-curvature="0" />
  </g>
  <g
     inkscape:groupmode="layer"
     id="layer1"
     inkscape:label="http"
     style="display:inline">
    <g
       transform="matrix(0.16418428,0,0,0.16418428,-0.19330891,1.3032372)"
       style="fill:#bcdffa;fill-opacity:1;fill-rule:evenodd;stroke:#1469ab;stroke-width:1;stroke-opacity:1"
       id="Page-1">
      <g
         style="fill:#bcdffa;fill-opacity:1;stroke:#1469ab;stroke-opacity:1"
         id="icon-132-cloud">
        <path
           inkscape:connector-curvature="0"
           d="M 26.882863,15.36551 C 28.713291,16.108508 30,17.903581 30,20 c 0,2.755805 -2.238325,5 -4.99944,5 H 7.9994399 C 5.2324942,25 3,22.761424 3,20 3,17.949131 4.2396588,16.181608 6.0118966,15.411539 v 0 C 6.0040021,15.275367 6,15.138151 6,15 6,11.134007 9.1340066,8 13,8 15.612757,8 17.891182,9.4314488 19.093808,11.552882 19.820616,11.198716 20.637102,11 21.5,11 c 2.648655,0 4.860022,1.872249 5.382863,4.36551 z"
           id="cloud"
           style="fill:#bcdffa;fill-opacity:1;stroke:#1469ab;stroke-opacity:1" />
      </g>
    </g>
  </g>
</svg>
