<?xml version="1.0" encoding="UTF-8" standalone="no"?>
<!-- Created with Inkscape (http://www.inkscape.org/) -->

<svg
   xmlns:dc="http://purl.org/dc/elements/1.1/"
   xmlns:cc="http://creativecommons.org/ns#"
   xmlns:rdf="http://www.w3.org/1999/02/22-rdf-syntax-ns#"
   xmlns:svg="http://www.w3.org/2000/svg"
   xmlns="http://www.w3.org/2000/svg"
   xmlns:sodipodi="http://sodipodi.sourceforge.net/DTD/sodipodi-0.dtd"
   xmlns:inkscape="http://www.inkscape.org/namespaces/inkscape"
   width="24"
   height="24"
   viewBox="0 0 6.35 6.35"
   version="1.1"
   id="svg8"
   inkscape:version="0.92.1 r15371"
   sodipodi:docname="mdafragment.svg"
   inkscape:export-filename="C:\diskH\Graphisme\Works\Modelio\Flat icons\modelio.app\app.project.ui\icons\mdafragment.png"
   inkscape:export-xdpi="96"
   inkscape:export-ydpi="96">
  <defs
     id="defs2" />
  <sodipodi:namedview
     id="base"
     pagecolor="#ffffff"
     bordercolor="#666666"
     borderopacity="1.0"
     inkscape:pageopacity="0.0"
     inkscape:pageshadow="2"
     inkscape:zoom="32.958333"
     inkscape:cx="11.415093"
     inkscape:cy="12"
     inkscape:document-units="px"
     inkscape:current-layer="layer2"
     showgrid="true"
     units="px"
     inkscape:window-width="1280"
     inkscape:window-height="961"
     inkscape:window-x="-8"
     inkscape:window-y="-8"
     inkscape:window-maximized="1"
     gridtolerance="1"
     guidetolerance="1">
    <inkscape:grid
       type="xygrid"
       id="grid4485" />
  </sodipodi:namedview>
  <metadata
     id="metadata5">
    <rdf:RDF>
      <cc:Work
         rdf:about="">
        <dc:format>image/svg+xml</dc:format>
        <dc:type
           rdf:resource="http://purl.org/dc/dcmitype/StillImage" />
        <dc:title />
      </cc:Work>
    </rdf:RDF>
  </metadata>
  <g
     inkscape:groupmode="layer"
     id="layer4"
     inkscape:label="file"
     transform="translate(0,-6.35)"
     style="display:inline">
    <rect
       style="display:inline;fill:#ddeaf7;fill-opacity:1;stroke:#1469ab;stroke-width:0.25969732;stroke-linecap:round;stroke-linejoin:miter;stroke-miterlimit:4;stroke-dasharray:none;stroke-dashoffset:0;stroke-opacity:1"
       id="rect5130"
       width="4.7603798"
       height="5.283381"
       x="1.186439"
       y="6.7501149" />
  </g>
  <g
     style="display:inline"
     inkscape:label="Project copy"
     id="g4504"
     inkscape:groupmode="layer"
     transform="translate(0,-6.35)">
    <g
       id="g5152"
       transform="matrix(0.24274729,0,0,0.23250515,2.2885891,8.9779208)">
      <path
         sodipodi:nodetypes="ccc"
         inkscape:connector-curvature="0"
         id="path4555"
         d="M 1.3229167,4.2333333 V 9.525 h 2.9104166"
         style="fill:none;fill-rule:evenodd;stroke:#1469ab;stroke-width:0.5291667;stroke-linecap:butt;stroke-linejoin:miter;stroke-miterlimit:4;stroke-dasharray:none;stroke-opacity:1" />
      <path
         sodipodi:nodetypes="cscccccszsc"
         inkscape:connector-curvature="0"
         id="path4500"
         d="M 0.417407,0.29295522 C 0.28201082,0.28869418 0.16391194,0.45988089 0.15581515,0.764709 c -0.0092,0.3463777 -0.0092,0.930314 -0.0092,0.930314 V 4.4979167 H 5.2916667 V 1.227874 H 3.1253291 L 2.8545369,0.76072504 C 2.6123329,0.34289433 2.5837448,0.29357611 2.1775563,0.29357611 c 0,0 -1.35771784,-6.2248e-4 -1.62869015,-6.2133e-4 z"
         style="fill:#fda12c;fill-opacity:1;fill-rule:evenodd;stroke:none;stroke-width:0.1257479px;stroke-linecap:butt;stroke-linejoin:miter;stroke-opacity:1" />
      <path
         sodipodi:nodetypes="cscccccszsc"
         inkscape:connector-curvature="0"
         id="path4500-8"
         d="M 4.2333334,7.14375 C 4.0979373,7.13949 3.9798384,7.3106757 3.9717416,7.6155038 c -0.0092,0.3463777 -0.0092,0.930314 -0.0092,0.930314 V 11.348712 H 9.1075931 V 8.0786688 H 6.9412557 L 6.6704634,7.6115199 C 6.4282594,7.1936891 6.3996713,7.1443709 5.9934828,7.1443709 c 0,0 -1.3577179,-6.225e-4 -1.6286902,-6.213e-4 z"
         style="display:inline;fill:#fda12c;fill-opacity:1;fill-rule:evenodd;stroke:none;stroke-width:0.1257479px;stroke-linecap:butt;stroke-linejoin:miter;stroke-opacity:1" />
      <path
         inkscape:connector-curvature="0"
         id="path4557"
         d="M 6.0854166,3.4395833 H 10.583333"
         style="fill:none;fill-rule:evenodd;stroke:#1469ab;stroke-width:0.5291667;stroke-linecap:butt;stroke-linejoin:miter;stroke-miterlimit:4;stroke-dasharray:none;stroke-opacity:1" />
      <path
         inkscape:connector-curvature="0"
         id="path4557-5"
         d="M 9.7895833,10.31875 H 12.435417"
         style="display:inline;fill:none;fill-rule:evenodd;stroke:#1469ab;stroke-width:0.5291667;stroke-linecap:butt;stroke-linejoin:miter;stroke-miterlimit:4;stroke-dasharray:none;stroke-opacity:1" />
    </g>
  </g>
  <g
     inkscape:groupmode="layer"
     id="layer5"
     inkscape:label="Project copy 1"
     transform="translate(0,-6.35)"
     style="display:inline">
    <path
       style="fill:#2b98f0;fill-opacity:1;fill-rule:evenodd;stroke:none;stroke-width:0.04547058px;stroke-linecap:butt;stroke-linejoin:miter;stroke-opacity:1"
       d="M 1.68583,7.5703 H 3.8230505 V 7.7483044 H 3.6372054 V 8.8163279 H 1.8716753 V 7.7483044 H 1.68583 Z"
       id="path4499"
       inkscape:connector-curvature="0" />
    <path
       style="fill:#fda12c;fill-opacity:1;fill-rule:evenodd;stroke:none;stroke-width:0.04547058px;stroke-linecap:butt;stroke-linejoin:miter;stroke-opacity:1"
       d="M 2.0575204,7.5703 V 7.392296 c 0,0 0,-0.1780038 0.1858455,-0.1780038 0.1858455,0 0.5575353,0 0.5575353,0 0,0 0.1858458,0 0.1858458,0.1780038 0,0.178004 0,0.178004 0,0.178004 z"
       id="path4501"
       inkscape:connector-curvature="0" />
  </g>
  <g
     inkscape:groupmode="layer"
     id="layer2"
     inkscape:label="mda"
     style="display:inline">
    <path
       style="display:inline;fill:#ffffff;fill-opacity:1;fill-rule:evenodd;stroke:none;stroke-width:0.07696924px;stroke-linecap:butt;stroke-linejoin:miter;stroke-opacity:1"
       d="m 2.5276784,2.0473407 c -0.3322112,0 -0.6015061,0.1744236 -0.6014512,0.3895629 2.246e-4,0.1528281 0.1680999,0.2868871 0.3260675,0.3407823 0.00283,0.01294 0.031042,0.041639 0.031042,0.063021 0,0.026801 -0.028704,0.053399 -0.065201,0.076939 H 1.3597225 V 3.842 c -0.019994,0.028655 -0.042133,0.05051 -0.064319,0.05051 -0.037485,0 -0.055229,-0.00196 -0.07401,-0.02291 C 1.2025134,3.8229843 1.1783465,3.7804925 1.1497429,3.7436084 1.1301429,3.708675 1.1016925,3.683297 1.070304,3.6643238 1.0118014,3.6201918 0.94567987,3.5969214 0.87838568,3.5967738 0.66321268,3.5967263 0.4887742,3.8282999 0.48882239,4.1139367 0.48883549,4.3995219 0.6632555,4.6310031 0.87838568,4.6309574 1.0309992,4.6307196 1.1694477,4.5121913 1.2325612,4.3277361 c 0.01541,-0.01117 0.032579,-0.011958 0.062849,-0.011958 0.022202,0 0.044313,0.021946 0.064316,0.050648 V 5.226628 h 0.6926391 c 0,0 0.1538865,-0.05767 0.1538865,-0.1154162 0,-0.018448 -3.37e-4,-0.030742 -0.00363,-0.041132 C 2.069116,5.0211814 1.9834408,4.9145535 1.9832258,4.797096 c 0,-0.1660858 0.1682993,-0.3007233 0.3759072,-0.3007233 0.2076076,0 0.3759072,0.1346375 0.3759072,0.3007233 -1.995e-4,0.1166734 -0.084731,0.222739 -0.2168805,0.2720894 -0.0036,0.010649 -0.00399,0.023087 -0.00399,0.04202 0,0.05775 0.1540334,0.115416 0.1540334,0.115416 h 0.923608 c -3.29e-5,-3.882e-4 0.1664116,-0.648455 0.1894221,-0.7534185 0.014708,-0.120938 0.010161,-0.1908872 -0.00364,-0.1973519 -0.017491,-0.00818 -0.043988,-0.00316 -0.048895,0.00522 -0.019878,0.033252 -0.056681,0.1161491 -0.075473,0.1537378 -0.025524,0.059364 -0.098705,0.094549 -0.1712143,0.1145345 -0.03475,0.014577 -0.071202,0.021984 -0.1079266,0.022113 -0.00733,-1.488e-4 -0.014708,-0.00107 -0.022021,-0.00178 -0.00459,1.736e-4 -0.011648,0.00178 -0.015558,0.00178 -0.018389,4.122e-4 -0.044485,-0.0069 -0.07313,-0.023165 C 3.1272227,4.4907268 3.0358837,4.334069 3.0357343,4.1580154 c 9.68e-5,-0.174008 0.08932,-0.3293226 0.2231944,-0.3885355 0.029981,-0.016568 0.05779,-0.024977 0.077531,-0.024977 0.00769,1.628e-4 0.015802,4.919e-4 0.023645,6.106e-4 0.00459,-3.127e-4 0.0093,-5.21e-4 0.013955,-6.106e-4 0.021791,3.37e-5 0.043521,0.00236 0.064901,0.00798 0.047782,0.00856 0.099436,0.02884 0.1593197,0.083995 0.1279389,0.1151211 0.070457,0.1587336 0.1474262,0.1587336 0.022213,0 0.044107,-0.020104 0.064462,-0.047426 C 3.8226368,3.7643299 3.6687546,2.917659 3.6687546,2.917659 H 2.8101935 C 2.7737055,2.894116 2.7451445,2.867507 2.7451445,2.84072 c 0,-0.017381 0.025375,-0.048196 0.027146,-0.05951 C 3.0026268,2.722723 3.1290776,2.59712 3.1291302,2.4369043 3.1291852,2.221765 2.8598894,2.0473416 2.5276784,2.0473407 Z"
       id="path5327-0-6"
       inkscape:connector-curvature="0"
       sodipodi:nodetypes="sccccccscccccccscccsccsccsccccccccccccccccccscccsccs" />
    <path
       style="display:inline;fill:#9b1b1b;fill-opacity:1;fill-rule:evenodd;stroke:none;stroke-width:0.07696924px;stroke-linecap:butt;stroke-linejoin:miter;stroke-opacity:1"
       d="m 2.3797329,2.1603931 c -0.332211,0 -0.6015062,0.1744236 -0.6014513,0.3895627 2.246e-4,0.1528286 0.1681001,0.2868871 0.326068,0.3407823 0.00282,0.01294 0.031041,0.04164 0.031041,0.063019 0,0.026801 -0.028705,0.053397 -0.065198,0.076938 H 1.2117775 v 0.9243547 c -0.019993,0.028672 -0.042132,0.05051 -0.064319,0.05051 -0.037485,0 -0.05523,-0.00197 -0.07401,-0.02292 -0.018884,-0.046586 -0.043053,-0.089098 -0.071655,-0.12598 C 0.9821917,3.8217348 0.9537425,3.7963598 0.9223539,3.7773768 0.86385456,3.7332537 0.79773369,3.7099743 0.73043964,3.7098177 0.51526607,3.7097699 0.34082892,3.9413426 0.3408766,4.2269812 0.3408895,4.5125621 0.51530968,4.7440461 0.73043963,4.7440019 0.88305242,4.7437646 1.021501,4.6252335 1.0846144,4.4407793 c 0.01541,-0.01116 0.032579,-0.011968 0.062849,-0.011968 0.022202,0 0.044313,0.021946 0.064319,0.050638 V 5.33964 H 1.90442 c 0,0 0.1538872,-0.05767 0.1538872,-0.1154168 0,-0.018448 -3.369e-4,-0.030732 -0.00363,-0.041132 C 1.9211696,5.1341838 1.8354942,5.0275756 1.8352795,4.910117 c 0,-0.1660828 0.1682992,-0.3007233 0.375907,-0.3007233 0.2076078,0 0.3759068,0.1346405 0.3759068,0.3007233 -1.991e-4,0.1166797 -0.084731,0.222739 -0.2168803,0.2720959 -0.0036,0.010627 -0.00399,0.023047 -0.00399,0.04202 0,0.05775 0.1540334,0.1154127 0.1540334,0.1154127 H 3.4438687 C 3.4438351,5.3392574 3.61028,4.6911924 3.6332905,4.5862262 3.6480013,4.4652898 3.643452,4.3953385 3.6296483,4.3888766 c -0.017491,-0.00828 -0.043988,-0.00316 -0.048895,0.00522 -0.019878,0.033254 -0.056681,0.1161467 -0.075476,0.1537377 -0.025524,0.059364 -0.098705,0.094549 -0.1712147,0.1145354 -0.03475,0.014567 -0.071201,0.021984 -0.1079259,0.022113 -0.00733,-1.479e-4 -0.014708,-0.00107 -0.022021,-0.00178 -0.00459,1.733e-4 -0.011648,0.00178 -0.015561,0.00178 -0.018388,4.129e-4 -0.044485,-0.00689 -0.073129,-0.023175 C 2.9792725,4.6037518 2.8879346,4.4470666 2.8877834,4.2710173 c 9.83e-5,-0.1740087 0.089321,-0.3293249 0.2231958,-0.3885341 0.029982,-0.016585 0.057791,-0.024983 0.07753,-0.024983 0.00769,1.6e-4 0.015806,4.702e-4 0.023647,5.864e-4 0.00459,-3.127e-4 0.0093,-5.333e-4 0.013955,-5.864e-4 0.021791,3.26e-5 0.043522,0.00246 0.0649,0.00798 0.047782,0.00856 0.099436,0.02884 0.1593195,0.083995 0.1279389,0.1151203 0.070457,0.158732 0.1474262,0.158732 0.022213,0 0.044108,-0.020104 0.064461,-0.047436 0.012483,-0.1834117 -0.1414,-1.0300795 -0.1414,-1.0300795 H 2.6622511 c -0.036486,-0.023543 -0.065049,-0.050152 -0.065049,-0.076938 0,-0.017381 0.025378,-0.048199 0.027146,-0.059509 C 2.8546811,2.8357755 2.9811315,2.7101728 2.9811844,2.5499566 2.981239,2.3348174 2.711944,2.1603937 2.3797329,2.1603931 Z"
       id="path5327-0"
       inkscape:connector-curvature="0"
       sodipodi:nodetypes="sccccccscccccccscccsccsccsccccccccccccccccccscccsccs" />
  </g>
</svg>
