<?xml version="1.0" encoding="UTF-8" standalone="no"?>
<!-- Created with Inkscape (http://www.inkscape.org/) -->

<svg
   xmlns:dc="http://purl.org/dc/elements/1.1/"
   xmlns:cc="http://creativecommons.org/ns#"
   xmlns:rdf="http://www.w3.org/1999/02/22-rdf-syntax-ns#"
   xmlns:svg="http://www.w3.org/2000/svg"
   xmlns="http://www.w3.org/2000/svg"
   xmlns:sodipodi="http://sodipodi.sourceforge.net/DTD/sodipodi-0.dtd"
   xmlns:inkscape="http://www.inkscape.org/namespaces/inkscape"
   width="24"
   height="24"
   viewBox="0 0 6.35 6.35"
   version="1.1"
   id="svg8"
   inkscape:version="0.92.1 r15371"
   sodipodi:docname="admin.svg"
   inkscape:export-filename="C:\diskH\TK\valkyrie\work\eclipse\modelio.app\admtool\icons\admin.png"
   inkscape:export-xdpi="96"
   inkscape:export-ydpi="96">
  <defs
     id="defs2" />
  <sodipodi:namedview
     id="base"
     pagecolor="#ffffff"
     bordercolor="#666666"
     borderopacity="1.0"
     inkscape:pageopacity="0.0"
     inkscape:pageshadow="2"
     inkscape:zoom="32.958333"
     inkscape:cx="6.9329962"
     inkscape:cy="12"
     inkscape:document-units="px"
     inkscape:current-layer="layer2"
     showgrid="true"
     units="px"
     inkscape:window-width="1920"
     inkscape:window-height="1017"
     inkscape:window-x="1272"
     inkscape:window-y="-8"
     inkscape:window-maximized="1">
    <inkscape:grid
       type="xygrid"
       id="grid4485" />
  </sodipodi:namedview>
  <metadata
     id="metadata5">
    <rdf:RDF>
      <cc:Work
         rdf:about="">
        <dc:format>image/svg+xml</dc:format>
        <dc:type
           rdf:resource="http://purl.org/dc/dcmitype/StillImage" />
        <dc:title></dc:title>
      </cc:Work>
    </rdf:RDF>
  </metadata>
  <g
     inkscape:groupmode="layer"
     id="layer2"
     inkscape:label="Project"
     transform="translate(0,-6.35)">
    <path
       d="M 5.8291035,10.29526 5.310578,9.9103095 c 0.00125,-0.00788 0.00223,-0.015786 0.00343,-0.023618 7.579e-4,-0.00315 9.093e-4,-0.00653 0.00125,-0.00973 0.00511,-0.033586 0.00939,-0.067101 0.012759,-0.1006576 4.548e-4,-0.0026 6.063e-4,-0.00345 7.578e-4,-0.00504 0.00347,-0.035009 0.00621,-0.070073 0.00793,-0.1051264 4.546e-4,-0.0026 4.546e-4,-0.00302 4.546e-4,-0.00459 0.00154,-0.034698 0.00252,-0.069425 0.00272,-0.1041261 0,-0.0026 4.546e-4,-0.00345 4.546e-4,-0.00499 0,-0.00268 -4.546e-4,-0.00395 -4.546e-4,-0.00605 0,-0.00751 4.546e-4,-0.015261 5.12e-5,-0.022812 -5.12e-5,-0.0026 0,-0.00281 0,-0.00422 -4.547e-4,-0.015182 -8.842e-4,-0.030132 -0.00125,-0.045246 -7.07e-4,-0.00942 -8.84e-4,-0.018514 -0.00125,-0.027901 -0.00103,-0.018365 -0.00154,-0.037004 -0.00311,-0.055451 -4.548e-4,-0.0026 -7.324e-4,-0.00387 -7.578e-4,-0.00581 -7.074e-4,-0.00526 -9.095e-4,-0.010657 -0.00125,-0.016138 -8.59e-4,-0.00984 -0.00196,-0.019523 -0.00297,-0.029396 -4.547e-4,-0.0026 -7.073e-4,-0.00435 -8.336e-4,-0.00639 -4.548e-4,-0.00228 -4.548e-4,-0.00265 -7.074e-4,-0.00364 -7.577e-4,-0.0048 -8.84e-4,-0.00987 -0.00125,-0.014831 -8.841e-4,-0.00629 -0.00106,-0.012226 -0.0017,-0.018216 -7.071e-4,-0.003 -8.841e-4,-0.00637 -0.00125,-0.00951 -7.073e-4,-0.00348 -0.00106,-0.00698 -0.00133,-0.010331 -0.00315,-0.025354 -0.00665,-0.050335 -0.010743,-0.0753 -6.315e-4,-0.0026 -7.072e-4,-0.00438 -8.841e-4,-0.00653 L 5.8297238,8.8091787 C 5.952941,8.738066 5.9951144,8.58057 5.9240066,8.4573974 L 5.4950654,7.713778 C 5.4239103,7.5905677 5.2663643,7.5483903 5.1432413,7.6195112 L 4.5497121,7.8764753 c -0.00323,-0.0027 -0.00688,-0.00504 -0.010148,-0.00759 -0.00146,-0.00175 -0.0031,-0.0026 -0.0046,-0.00377 -0.00762,-0.00626 -0.015545,-0.012126 -0.023353,-0.018239 -0.00852,-0.00674 -0.016954,-0.013234 -0.02552,-0.019856 -0.00703,-0.00526 -0.01407,-0.010507 -0.021085,-0.01576 -0.00319,-0.0026 -0.00662,-0.00493 -0.00989,-0.00732 -0.00575,-0.00422 -0.011387,-0.00873 -0.0172,-0.012735 -0.00316,-0.0026 -0.00639,-0.00469 -0.00956,-0.00695 -0.00807,-0.00573 -0.016224,-0.011268 -0.024373,-0.016901 -0.00199,-0.00175 -0.00407,-0.00284 -0.00618,-0.0043 -0.0035,-0.0026 -0.00715,-0.00488 -0.010666,-0.00721 -0.011878,-0.00791 -0.023828,-0.016067 -0.035857,-0.02382 -0.00125,-0.00122 -0.00274,-0.00202 -0.00407,-0.0026 -0.019673,-0.012682 -0.039468,-0.025274 -0.059557,-0.037378 -0.00517,-0.00313 -0.010241,-0.00602 -0.01542,-0.00915 -0.043163,-0.025608 -0.087128,-0.049667 -0.132081,-0.07215 -8.841e-4,-7.577e-4 -0.00154,-0.00106 -0.00252,-0.00149 -0.058234,-0.029089 -0.1180084,-0.055549 -0.1791247,-0.079466 -0.00154,-0.00106 -0.00337,-0.00149 -0.00514,-0.00228 -0.00776,-0.00315 -0.01554,-0.00631 -0.023361,-0.00944 L 3.8558565,6.875639 C 3.856185,6.7334128 3.7406467,6.6180899 3.5983692,6.6180899 H 2.7401164 c -0.1422265,0 -0.2574983,0.1152747 -0.2574983,0.2575491 l -0.074265,0.6426133 c -0.00345,0.00149 -0.00683,0.00281 -0.010326,0.00411 -0.00402,0.00175 -0.00808,0.00327 -0.012134,0.00485 -0.023722,0.00934 -0.04719,0.01862 -0.070467,0.028699 -0.00418,0.00202 -0.00832,0.00374 -0.012483,0.00541 -0.021087,0.00934 -0.042072,0.01854 -0.062859,0.028442 -0.00204,0.00122 -0.00438,0.0026 -0.00657,0.00317 -0.00274,0.00149 -0.00543,0.0026 -0.0082,0.00393 -0.00756,0.00372 -0.015163,0.00738 -0.02273,0.011269 -0.017439,0.00873 -0.034709,0.017654 -0.051867,0.02687 -0.01242,0.00661 -0.024974,0.013033 -0.037348,0.019979 -0.00777,0.00438 -0.015468,0.00918 -0.023228,0.013409 -7.831e-4,5.051e-4 -0.00125,0.00106 -0.0017,0.00122 -0.00128,0.00106 -0.00303,0.00175 -0.00438,0.0026 -0.00239,0.00175 -0.0049,0.00313 -0.00736,0.00459 -0.0281,0.016243 -0.055796,0.033261 -0.083149,0.050874 -0.00316,0.0026 -0.00622,0.00409 -0.00934,0.00608 -0.00316,0.00278 -0.00636,0.00414 -0.00952,0.00618 -8.841e-4,0.00105 -0.00173,0.00149 -0.00272,0.00202 -0.023364,0.015486 -0.0464,0.031427 -0.069227,0.047782 -0.00316,0.0026 -0.00642,0.00464 -0.00956,0.0069 -0.025517,0.018418 -0.050678,0.037646 -0.075438,0.057283 -0.00427,0.00345 -0.00862,0.00682 -0.012825,0.010305 -0.00538,0.00446 -0.010995,0.00862 -0.016348,0.012982 L 1.1957946,7.620577 C 1.0726085,7.5494662 0.91506583,7.591689 0.84395409,7.7148714 L 0.4146414,8.4580918 C 0.3434786,8.5813678 0.3857489,8.7388667 0.508878,8.8099872 l 0.5186839,0.3849969 c -0.00104,0.00631 -0.0017,0.012454 -0.0028,0.018645 -0.00109,0.00711 -0.00202,0.013945 -0.00316,0.021294 -0.00432,0.029538 -0.00814,0.059015 -0.011289,0.088503 -7.83e-4,0.00602 -0.00114,0.011796 -0.00162,0.017506 -0.00244,0.026439 -0.00479,0.052847 -0.00638,0.079262 -4.546e-4,0.0026 -4.546e-4,0.00417 -5.305e-4,0.00631 -4.547e-4,0.0026 -4.547e-4,0.00451 -6.315e-4,0.00674 -6.062e-4,0.00602 -7.831e-4,0.011875 -8.841e-4,0.017606 -0.001284,0.030075 -0.001991,0.060208 -0.0022,0.090264 -4.827e-5,0.00425 -6.0632e-4,0.00823 -6.0632e-4,0.012454 0,0.00464 4.8002e-4,0.00926 4.8002e-4,0.013795 0,0.00332 -5.135e-5,0.00671 0,0.010077 0,0.00356 -4.5474e-4,0.00716 0,0.010708 4.5465e-4,0.012279 8.8401e-4,0.024531 0.001254,0.036906 7.3293e-4,0.015914 0.001254,0.031888 0.00207,0.04775 8.84e-4,0.013287 0.00125,0.026712 0.00226,0.040023 4.548e-4,0.0026 5.305e-4,0.00387 7.075e-4,0.00584 7.07e-4,0.00669 0.00109,0.013187 0.00154,0.019706 8.334e-4,0.00852 0.00154,0.017076 0.00236,0.025412 0.00173,0.019075 0.00365,0.038252 0.006,0.057197 0,5.052e-4 4.549e-4,0.00122 4.549e-4,0.00175 0.00345,0.028285 0.00747,0.056447 0.012134,0.084418 4.548e-4,0.00265 6.314e-4,0.00327 8.084e-4,0.00477 L 0.50906433,10.296886 c -0.12326489,0.07109 -0.16543526,0.228613 -0.094273,0.351743 l 0.42916969,0.7434 c 0.0711119,0.123237 0.22865588,0.165414 0.35178378,0.09427 l 0.592678,-0.256404 c 0.00407,0.0035 0.00843,0.0067 0.012486,0.01 8.337e-4,0.0027 0.00136,0.0027 0.00207,0.0027 0,5.04e-4 4.543e-4,5.04e-4 4.543e-4,7.57e-4 0.00636,0.0051 0.012923,0.01008 0.019397,0.01533 0.010146,0.0085 0.020273,0.01594 0.030586,0.02375 0.00596,0.0048 0.011998,0.0094 0.017991,0.01352 0.00789,0.0064 0.015765,0.01189 0.02377,0.01767 8.841e-4,0.0027 0.00154,0.0027 0.00239,0.0027 0.00376,0.003 0.00741,0.0054 0.011284,0.0088 0.00924,0.0069 0.018591,0.01279 0.027899,0.01929 8.841e-4,0.0027 0.00154,0.0027 0.00233,0.0027 0.00366,0.0027 0.00737,0.0051 0.011003,0.008 0.032572,0.02215 0.06569,0.04357 0.099558,0.06404 0.0059,0.0037 0.01183,0.0074 0.01775,0.01024 0.042421,0.02505 0.085689,0.04883 0.1298936,0.071 0.00136,0.0027 0.00311,0.0027 0.00456,0.0027 0.066937,0.03329 0.1357096,0.06362 0.2063248,0.09006 l 0.074196,0.641709 c 0,0.142214 0.1152738,0.25753 0.2575484,0.25753 l 0.8583785,7.4e-5 C 3.7404582,12.49203 3.8558298,12.376838 3.8558298,12.2345 l 0.074282,-0.641869 c 0.0036,-0.0028 0.00715,-0.0031 0.01074,-0.0043 0.00355,-0.0027 0.00721,-0.0031 0.01069,-0.0045 0.023914,-0.0096 0.04769,-0.01873 0.071209,-0.02885 0.00464,-0.0028 0.00924,-0.0043 0.013788,-0.0065 0.020992,-0.0097 0.04187,-0.01842 0.062461,-0.02833 0.00188,-0.0027 0.00394,-0.0027 0.00585,-0.0031 4.546e-4,-5.3e-5 6.063e-4,-7.56e-4 7.326e-4,-0.0013 0.00207,-0.0027 0.00452,-0.0027 0.00666,-0.0029 0.00808,-0.0042 0.016227,-0.0085 0.02421,-0.01199 0.017155,-0.0088 0.034063,-0.01746 0.050878,-0.02634 0.012826,-0.0071 0.025653,-0.01334 0.03834,-0.02048 0.00647,-0.0038 0.012825,-0.0079 0.019264,-0.01125 0.00199,-0.0028 0.00432,-0.0029 0.00646,-0.0039 0.00109,-0.0027 0.0022,-0.0027 0.00322,-0.0027 0.00183,-0.0027 0.0036,-0.0027 0.00546,-0.0035 0.029238,-0.01709 0.058132,-0.03463 0.086575,-0.05296 0.00202,-0.0028 0.00413,-0.003 0.00621,-0.0042 0.00441,-0.003 0.0089,-0.0062 0.013274,-0.009 0.024017,-0.01585 0.04779,-0.0323 0.071263,-0.04915 0.00228,-0.0027 0.00459,-0.0034 0.00688,-0.0051 0.026404,-0.01921 0.052514,-0.03888 0.078077,-0.0593 0.00345,-0.0028 0.00704,-0.0054 0.010395,-0.0087 0.00574,-0.0049 0.011756,-0.0096 0.017503,-0.01401 l 0.5927748,0.256556 c 0.1232305,0.07116 0.2807252,0.02887 0.3517829,-0.09426 l 0.4292227,-0.74329 c 0.071017,-0.123172 0.028839,-0.280675 -0.094337,-0.351784 z m -2.6599174,0.152422 c -0.4947075,0 -0.8957743,-0.401006 -0.8957743,-0.8957676 0,-0.4947537 0.4010668,-0.8958287 0.8957743,-0.8958287 0.4947067,0 0.895822,0.4011155 0.895822,0.8958287 0,0.4947116 -0.4011153,0.8957676 -0.895822,0.8957676 z"
       style="fill:#324a5e;stroke-width:0.04972924;fill-opacity:1"
       id="path4498"
       inkscape:connector-curvature="0" />
  </g>
</svg>
